<?xml version="1.0" encoding="UTF-8"?>
<svg width="36px" height="22px" viewBox="0 0 36 22" version="1.1" xmlns="http://www.w3.org/2000/svg" xmlns:xlink="http://www.w3.org/1999/xlink">
    <title>tailwindcss-logo</title>
    <g id="Yonn" stroke="none" stroke-width="1" fill="none" fill-rule="evenodd">
        <g id="Desktop" transform="translate(-699.000000, -227.000000)" fill="#08B5D4">
            <g id="section-#2" transform="translate(80.000000, 46.000000)">
                <g id="banner" transform="translate(360.000000, 0.000000)">
                    <g id="link" transform="translate(20.000000, 164.000000)">
                        <g id="tailwindcss-logo" transform="translate(239.000000, 17.000000)">
                            <path d="M18.0239991,0 C13.2298822,0 10.2343517,2.37303728 9.03529412,7.11911185 C10.833176,4.74607456 12.9304701,3.856361 15.3271762,4.44926949 C16.6946091,4.78747291 17.672454,5.7698065 18.7538602,6.85739011 C20.5165172,8.62839724 22.5567468,10.6779661 27.0119995,10.6779661 C31.8054119,10.6779661 34.8016469,8.30492882 36,3.55955592 C34.2028226,5.9325932 32.1055286,6.82230677 29.7088224,6.22869661 C28.340685,5.89049319 27.3628401,4.90815961 26.2814339,3.82127766 C24.518777,2.0488672 22.4792519,0 18.0239991,0 Z M8.98800046,10.6779661 C4.19458808,10.6779661 1.19835309,13.0510034 0,17.7970779 C1.79788189,15.4240407 3.89517593,14.5343271 6.29117762,15.1272356 C7.65931502,15.465439 8.63715987,16.4477726 9.7185661,17.5353562 C11.481223,19.3063633 13.5207481,21.3559322 17.9767054,21.3559322 C22.7701178,21.3559322 25.7663528,18.9835966 26.9647059,14.237522 C25.166824,16.6105593 23.0695299,17.5002729 20.6728238,16.9073644 C19.3053909,16.5684593 18.327546,15.5861257 17.2461398,14.4992438 C15.4834828,12.7282366 13.4432532,10.6779661 8.98800046,10.6779661 Z" id="Shape"></path>
                        </g>
                    </g>
                </g>
            </g>
        </g>
    </g>
</svg>