<svg width="16px" height="15px" viewBox="0 0 16 15">
    <g stroke="none" stroke-width="1" fill="none" fill-rule="evenodd">
        <g fill="currentColor" fill-rule="nonzero">
            <path d="M10,10.5 C10,10.776375 9.776375,11 9.5,11 L6.5,11 C6.223625,11 6,10.776375 6,10.5 L6,9 L0,9 L0,13.5 C0,14.2998125 0.7001875,15 1.5,15 L14.5,15 C15.2998125,15 16,14.2998125 16,13.5 L16,9 L10,9 L10,10.5 Z" opacity="0.4"></path>
            <path d="M14.5,3 L12,3 L12,1.5 C12,0.7001875 11.2998125,0 10.5,0 L5.5,0 C4.7001875,0 4,0.7001875 4,1.5 L4,3 L1.5,3 C0.7001875,3 0,3.7001875 0,4.5 L0,9 L16,9 L16,4.5 C16,3.7001875 15.2998125,3 14.5,3 Z M10.5,3 L5.5,3 L5.5,1.5 L10.5,1.5 L10.5,3 Z"></path>
        </g>
    </g>
</svg>