<svg width="20px" height="18px" viewBox="0 0 20 18">
    <g transform="translate(-6, -7)" fill="currentColor" fill-rule="nonzero">
        <path d="M25.6207658,15.052251 L23.7775807,13.4395856 L23.7775807,8.66613743 C23.7775807,8.35957648 23.5291097,8.11058468 23.2220279,8.11058468 L21,8.11058468 C20.6929782,8.11058468 20.4445072,8.35957648 20.4445072,8.66613743 L20.4445072,10.5233503 L16.7319565,7.27506806 C16.5225825,7.0916662 16.2613338,7 16.0001546,7 C15.7849474,7 15.5089418,7.06430523 15.2682139,7.27506806 L6.37943925,15.052251 C5.6095473,15.7261713 6.0905171,16.9999496 7.11131056,16.9999496 L8.22321467,16.9999496 L8.22321467,22.5554771 C8.22321467,23.7827278 9.21814021,24.7776881 10.4454257,24.7776881 L21.5554044,24.7776881 C22.7827246,24.7776881 23.7775807,23.7827278 23.7775807,22.5554771 L23.7775807,16.9999496 L24.8888945,16.9999496 C25.5047247,16.9999496 26,16.5000215 26,15.888844 C26,15.5745054 25.8665979,15.2674583 25.6207658,15.052251 Z M18.2226434,17.3688713 C18.2226434,17.7811956 17.8884437,18.1110551 17.4804596,18.1110551 L14.520544,18.1110551 C14.11256,18.1110551 13.778395,17.7768554 13.778395,17.3688713 L13.778395,14.4088168 C13.778395,13.9964925 14.11256,13.666633 14.520544,13.666633 L17.4804596,13.666633 C17.8884437,13.666633 18.2226434,13.9964925 18.2226434,14.4088168 L18.2226434,17.3688713 Z"></path>
    </g>
</svg>