<svg height="64" viewBox="0 0 64 64" width="64" xmlns="http://www.w3.org/2000/svg"><g fill="none"><path d="m23.4184036 0c-3.5307645.00260958-6.3882568 2.86793068-6.385649 6.39869521-.0026078 3.53076452 2.8574941 6.39608559 6.3882586 6.39869519h6.3882587v-6.39608561c.0026078-3.53076452-2.8574941-6.39608563-6.3908683-6.40130479.0026096 0 .0026096 0 0 0m0 17.0666667h-17.03013248c-3.53076452.0026095-6.39086646 2.8679306-6.38826401 6.3986952-.00521203 3.5307645 2.85488991 6.3960856 6.38565443 6.4013048h17.03274206c3.5307646-.0026096 6.3908665-2.8679307 6.3882587-6.3986952.0026078-3.5333742-2.8574941-6.3986953-6.3882587-6.4013048z" fill="#36c5f0"/><path d="m63.8721465 23.4653619c.0026078-3.5307646-2.8574941-6.3960857-6.3882587-6.3986952-3.5307645.0026095-6.3908664 2.8679306-6.3882586 6.3986952v6.4013048h6.3882586c3.5307646-.0026096 6.3908665-2.8679307 6.3882587-6.4013048zm-17.0327421 0v-17.06666669c.0026078-3.52815494-2.8548845-6.39347605-6.3856491-6.39869521-3.5307645.00260958-6.3908664 2.86793068-6.388264 6.39869521v17.06666669c-.005212 3.5307645 2.8548899 6.3960856 6.3856544 6.4013048 3.5307646-.0026096 6.3908665-2.8679307 6.3882587-6.4013048z" fill="#2eb67d"/><path d="m40.4511457 64c3.5307646-.0026096 6.3908665-2.8679307 6.3882587-6.3986952.0026078-3.5307645-2.8574941-6.3960856-6.3882587-6.3986952h-6.3882586v6.3986952c-.0026078 3.5281549 2.8574941 6.393476 6.3882586 6.3986952zm0-17.0692762h17.0327421c3.5307646-.0026096 6.3908665-2.8679307 6.3882641-6.3986953.005212-3.5307645-2.8548899-6.3960856-6.3856545-6.4013047h-17.0327421c-3.5307645.0026095-6.3908664 2.8679306-6.3882586 6.3986952-.0026078 3.5333741 2.8548845 6.3986952 6.385649 6.4013048z" fill="#ecb22e"/><path d="m.00001246 40.5320285c-.0026078 3.5307646 2.85749414 6.3960857 6.38825866 6.3986953 3.53076453-.0026096 6.39086648-2.8679307 6.38825868-6.3986953v-6.3986952h-6.38825868c-3.53076452.0026096-6.39086646 2.8679307-6.38825866 6.3986952zm17.03273674 0v17.0666667c-.005212 3.5307645 2.8548899 6.3960856 6.3856544 6.4013048 3.5307646-.0026096 6.3908665-2.8679307 6.3882641-6.3986952v-17.0640571c.005212-3.5307645-2.8548899-6.3960856-6.3856545-6.4013048-3.5333741 0-6.3908664 2.8653211-6.388264 6.3960856 0 0 0 .0026096 0 0" fill="#e01e5a"/></g></svg>