<svg height="46" viewBox="0 0 48 46" width="48" xmlns="http://www.w3.org/2000/svg" xmlns:xlink="http://www.w3.org/1999/xlink"><linearGradient id="a"><stop offset=".18" stop-color="#0052cc"/><stop offset="1" stop-color="#2684ff"/></linearGradient><linearGradient id="b" x1="99.224%" x2="33.953%" xlink:href="#a" y1="65.748%" y2="46.991%"/><linearGradient id="c" x1=".968%" x2="66.163%" xlink:href="#a" y1="34.338%" y2="53.042%"/><g fill="none"><path d="m1.78272937 35.0815548c-.51894355.7784153-1.03788709 1.7514345-1.55683064 2.4649819-.45407561.7135473-.19460383 1.6216985.51894355 2.0757741l9.92479532 6.0975867c.7135474.4540756 1.6865666.1946039 2.0757742-.5189435.3892077-.6486795.9081512-1.5568307 1.4919627-2.4649819 3.9569446-6.4867943 7.8490212-5.708379 14.9844949-2.270378l9.8599275 4.6704919c.7784153.3892077 1.6865665.064868 2.0109062-.7135473 0 0 0 0 0-.064868l4.7353599-10.7032107c.3243397-.7784153 0-1.6216985-.7784154-2.0109062-2.0757741-.9730192-6.2273225-2.9190575-9.9247953-4.7353599-13.2979284-6.3570584-24.6498185-5.9678508-33.34212293 8.1733609z" fill="url(#b)"/><path d="m46.2172706 10.8858119c.5189436-.7784153 1.0378871-1.75143448 1.5568307-2.46498185.4540756-.71354738.1946038-1.62169859-.5189436-2.07577419l-9.9247953-6.09758669c-.7135474-.4540756-1.6216986-.25947177-2.1406422.38920766 0 0-.0648679.06486795-.0648679.06486795-.3892077.64867943-.9081512 1.55683064-1.4919627 2.46498185-3.9569445 6.48679434-7.8490212 5.70837902-14.9844949 2.27037802l-9.79505949-4.67049193c-.77841533-.38920766-1.68656653-.06486794-2.01090625.71354738v.06486794l-4.73535987 10.70321066c-.32433972.7784153 0 1.6216986.77841532 2.0109063 2.07577419.9730191 6.22732257 2.9190574 9.92479539 4.7353598 13.3627963 6.4219264 24.7146864 5.9678508 33.4069908-8.1084929z" fill="url(#c)"/></g></svg>