<svg height="64" viewBox="0 0 62 64" width="62" xmlns="http://www.w3.org/2000/svg"><path d="m10.5868278 11.220532c1.990578 1.6172659 2.737328 1.4938778 6.475359 1.2444575l35.2396511-2.1159806c.7473796 0 .1259063-.74561688-.1233881-.86950863l-5.8525007-4.23095395c-1.121447-.87064179-2.6154507-1.86769346-5.4789367-1.61827316l-34.12261089 2.48878904c-1.24445747.12338813-1.49299642.74561687-.99742939 1.24433156zm2.1156029 8.2126135v37.0782603c0 1.9927184.9959185 2.7382093 3.2371759 2.6149471l38.7283877-2.2410055c2.2423905-.1232622 2.4921885-1.4938778 2.4921885-3.1126545v-36.8294696c0-1.6161327-.6217251-2.4876558-1.9943552-2.3632605l-40.4715599 2.3632605c-1.4936259.1255286-1.991837.8726563-1.991837 2.4899222zm38.2326948 1.9889412c.2482871 1.1209434 0 2.2408796-1.1230838 2.3669118l-1.8659308.3718012v27.3735317c-1.6201618.8707677-3.1141654 1.368601-4.3591265 1.368601-1.993222 0-2.4924403-.6226064-3.9854368-2.4879077l-12.2058564-19.1616736v18.5394449l3.8624263.8715231s0 2.2386133-3.1161799 2.2386133l-8.5905841.498337c-.2495462-.498337 0-1.7415354.8713972-1.990578l2.241761-.6213474v-24.5126896l-3.1125287-.2494203c-.2496721-1.1209435.372053-2.7372021 2.1167361-2.8626048l9.2157087-.6212214 12.7025566 19.4110939v-17.1715993l-3.2386867-.3716753c-.248539-1.3703637.7462464-2.3654009 1.9917111-2.488789zm-47.07572093-18.66232941 35.49297453-2.61381395c4.3586229-.37381569 5.48007-.12338814 8.2195384 1.8665603l11.3298007 7.96319319c1.8694561 1.36935647 2.4925662 1.74216487 2.4925662 3.23490957v43.674741c0 2.7372021-.9971776 4.3559789-4.4832701 4.6036365l-41.2180581 2.4890408c-2.6169616.1247731-3.8624263-.2481612-5.232916-1.9912075l-8.34343007-10.8251684c-1.49488502-1.9927183-2.11661013-3.4834484-2.11661013-5.227502v-38.82105468c0-2.23836149.99742939-4.10555132 3.85940457-4.35333483z"/></svg>