<svg height="52" viewBox="0 0 64 52" width="64" xmlns="http://www.w3.org/2000/svg"><g fill="none"><path d="m42.5629195 14.2046397 5.5632521-5.56325217.3707502-2.3425009c-10.137754-9.21825358-26.2530102-8.17300317-35.3917638 2.18100084-2.5385009 2.87575113-4.42175167 6.46100253-5.42600206 10.16325393l1.99250078-.2807501 11.12625428-1.8347507.8590004-.8785003c4.9492519-5.4355022 13.3175051-6.16675244 19.0320074-1.5420006z" fill="#ea4335"/><path d="m56.0511997 18.4795414c-1.2787505-4.7090019-3.9040015-8.94225352-7.5542529-12.18050477l-7.808003 7.80800307c3.2970012 2.694001 5.175252 6.7525026 5.0947519 11.0092542v1.3860006c3.8377515 0 6.9492527 3.1112512 6.9492527 6.9490027 0 3.8380014-3.1115012 6.8712526-6.9492527 6.8712526h-13.9177554l-1.3665005 1.4835006v8.3350032l1.3665005 1.3077505h13.9177554c9.9825039.0777501 18.1380071-7.873503 18.2157571-17.8560069.047-6.0507523-2.9362511-11.7232545-7.9482531-15.1132558" fill="#4285f4"/><path d="m17.9675849 51.4489291h13.8982554v-11.1265043h-13.8982554c-.9902503-.00025-1.9492507-.2130001-2.8497511-.6245002l-1.9717507.6050002-5.60225221 5.5632522-.48800019 1.8935007c3.1417512 2.3722509 6.9750027 3.7062514 10.9117542 3.6892514" fill="#34a853"/><path d="m17.9675849 15.3562487c-9.98275384.0596165-18.02675696 8.2006196-17.96725693 18.1831235.03325001 5.5745022 2.63675102 10.8220042 7.05550273 14.2202555l8.0620031-8.0617531c-3.4977513-1.5802506-5.0520019-5.6965022-3.4717513-9.1940036 1.5800006-3.4975013 5.6965022-5.0517519 9.1937536-3.4717513 1.5412505.6962502 2.775501 1.9307507 3.4717513 3.4717513l8.0620031-8.0617531c-3.4302513-4.4842518-8.7602534-7.1060028-14.4060056-7.0858692" fill="#fbbc05"/></g></svg>