<svg height="64" viewBox="0 0 62 64" width="62" xmlns="http://www.w3.org/2000/svg" xmlns:xlink="http://www.w3.org/1999/xlink"><linearGradient id="a"><stop offset=".18" stop-color="#0052cc"/><stop offset="1" stop-color="#2684ff"/></linearGradient><linearGradient id="b" x1="67.872%" x2="40.827%" xlink:href="#a" y1="40.215%" y2="81.626%"/><linearGradient id="c" x1="32.664%" x2="59.345%" xlink:href="#a" y1="59.173%" y2="17.994%"/><g fill="none"><path d="m61.1605238 30.2105036-30.2105036-30.2105036-30.21050354 30.2105036c-.98602221.9900472-.98602221 2.5909661 0 3.5810133l30.21050354 30.2105036 30.2105036-30.2105036c.9860222-.9900472.9860222-2.5909661 0-3.5810133zm-30.2105036 11.2492566-9.4618747-9.4618748 9.4618747-9.4618747 9.4618747 9.4618747z" fill="#2684ff"/><path d="m30.9500202 22.5985066c-6.1951981-6.194388-6.2259101-16.22882139-.0687454-22.46101569l-20.7673776 20.63613629 11.2680053 11.2680053z" fill="url(#b)"/><path d="m40.4368933 31.9728871-9.4868731 9.4868731c2.989728 2.9877881 4.6695028 7.0412629 4.6695028 11.2680053s-1.6797748 8.2802172-4.6695028 11.2680054l20.7486289-20.7486289z" fill="url(#c)"/></g></svg>