<svg height="39" viewBox="0 0 64 39" width="64" xmlns="http://www.w3.org/2000/svg"><g fill="none" fill-rule="evenodd"><path d="m53.8384207 20.0085872c-1.1068475 0-2.2137232-.1277034-3.2780028-.3831666-1.0643079-.255435-1.8944223-.5321398-2.4478883-.8514125-.3405424-.1915692-.5747077-.4044364-.6598151-.5960056-.0851638-.1915692-.1277316-.4044082-.1277316-.5960056v-1.0855495c0-.4470324.1702994-.6598714.4895721-.6598714.1277034 0 .255435.0212698.3831384.0638658.1277034.0425678.3192726.1277034.5321398.212839.7237372.3193008 1.5113121.5747358 2.3414265.745007.8514407.1702995 1.6815833.2554351 2.5329957.2554351 1.3410127 0 2.3840226-.2341371 3.1077316-.7024393.723709-.468274 1.1068757-1.1494434 1.1068757-2.0221539 0-.5959774-.1915975-1.0855494-.5747359-1.4899859-.3831384-.4044364-1.1068474-.7662768-2.1498291-1.1068474l-3.0864617-.9578743c-1.5538517-.489572-2.7032952-1.21328102-3.4057062-2.17115527-.702411-.93654804-1.0643079-1.9795579-1.0643079-3.08640535 0-.89400845.1915692-1.68158329.5747077-2.36272452.3831666-.68114124.8940366-1.27714687 1.5326101-1.74542089.6385452-.48957202 1.3622824-.85144064 2.2136949-1.10687566.8514406-.25543501 1.7454208-.36184041 2.6819971-.36184041.4683022 0 .9578742.0212698 1.4261483.0851356.4896002.06386581.9365762.14900141 1.3835804.23413701.4257345.10643361.8301709.21286722 1.2133093.34059883.3831384.1277034.681113.2554068.8939802.38313842.2980311.1702712.5108419.3405424.6385735.53211161.1277316.17029941.1915692.40443642.1915692.70243924v1.00044205c0 .44700423-.1702712.68114124-.489572.68114124-.1702712 0-.4469761-.0851356-.8088447-.25543502-1.213281-.55343783-2.5755635-.83014264-4.0868474-.83014264-1.213281 0-2.1711553.19156921-2.8310267.59600563-.6598715.40443643-1.0004139 1.02171185-1.0004139 1.8944223 0 .59600563.212839 1.10687566.6385735 1.51128387.4257062.40443642 1.213281.80884464 2.3414265 1.17071326l3.0225677.95787425c1.5325537.48957203 2.6394294 1.17071325 3.2992726 2.04342375.6598714.8727104.979144 1.8731242.979144 2.9799999 0 .9152782-.1915692 1.7454209-.5534096 2.4691581-.3831384.7237091-.8940084 1.3622825-1.5538517 1.8731243-.6598432.5321398-1.447418.9153065-2.3627245 1.1920113-.9578742.2980028-1.9582881.4470042-3.0438657.4470042zm-27.3521676-.5747358c-.3831384 0-.6385734-.0638658-.8088446-.212839-.1702995-.1277316-.3193009-.4257345-.4470043-.8301427l-5.0021538-16.45387961c-.1277034-.42570622-.1915692-.70241103-.1915692-.85144064 0-.34054241.1702994-.53211162.51087-.53211162h2.0859915c.4044364 0 .6811412.0638376.8301426.21283901.1702712.1277034.2980029.42570621.4257063.83014264l3.5760055 14.09115512 3.3205706-14.09115512c.1064336-.42570622.234137-.70243924.4044364-.83014264.1702994-.12770341.468274-.21283901.8514125-.21283901h1.702853c.4044365 0 .6811695.0638376.8514407.21283901.1702994.1277034.3192726.42570621.4044364.83014264l3.3631666 14.26142632 3.682411-14.26142632c.1277034-.42570622.2767048-.70243924.4257344-.83014264.1702712-.12770341.446976-.21283901.8301144-.21283901h1.9795861c.3405707 0 .5321399.1702712.5321399.53211162 0 .1064336-.021298.21286721-.0425678.34059882-.0212698.12770341-.0638658.29800282-.1490014.53213983l-5.1298573 16.4538514c-.1277316.4257344-.276733.7024393-.4470042.8301427-.1702994.1277034-.4470043.2128672-.8088729.2128672h-1.8305565c-.4044364 0-.6811412-.0638658-.8514406-.2128672-.1702712-.1490014-.3192726-.4257063-.4044364-.8514125l-3.2992726-13.72931467-3.2780028 13.70801667c-.1064336.4257062-.234137.7024393-.4044364.8514407-.1702712.1489732-.468274.212839-.8514124.212839zm-17.09242486-2.2988587c.70241106 0 1.42612006-.1277035 2.19242506-.3831385.7662769-.2554068 1.4474463-.723709 2.022154-1.3622824.3405706-.4044365.5959774-.8514125.723709-1.3622825.1277034-.51087.212839-1.1281455.212839-1.8518545v-.8940084c-.6172754-.1490014-1.2771469-.2767048-1.9582881-.3618687-.6811412-.0851356-1.3409845-.1277034-2.0008559-.1277034-1.42614828 0-2.46912993.2767331-3.17156917.8514407-.70241102.5747076-1.04300985 1.3835522-1.04300985 2.4478319 0 1.0004421.25543501 1.7454491.78757484 2.2562909.51087003.532168 1.25587707.7875749 2.23502112.7875749zm8.64199706-3.235435c0 .7875748.0851356 1.4261765.234137 1.8944505.1702994.468274.3831666.979144.6811412 1.5325537.1064336.1702994.1490014.3405988.1490014.489572 0 .2128672-.1277034.4257344-.4044364.6386016l-1.3409845.8939803c-.1915692.1277316-.3831384.1915692-.5534378.1915692-.212839 0-.4257062-.1064336-.6385734-.2980028-.2980028-.3192727-.5534096-.6598433-.7662769-1.0004139-.2128672-.3618686-.4257062-.7662768-.6598714-1.2558488-1.6602853 1.9582598-3.7462768 2.9374039-6.25800271 2.9374039-1.78798869 0-3.21413696-.5108418-4.25714682-1.5325537-1.04298164-1.0217118-1.57514968-2.3839943-1.57514968-4.0868756 0-1.8092867.63860164-3.2780028 1.9370183-4.3848502 1.29841666-1.10684746 3.02256775-1.66028529 5.21499286-1.66028529.72370905 0 1.46874425.06386581 2.25629095.17029942.7875748.1064336 1.5964477.27670481 2.4478601.46827402v-1.55385168c0-1.61771748-.3405706-2.74586294-1.0004139-3.40573438-.6811412-.65984323-1.8305847-.97914405-3.4696001-.97914405-.74497887 0-1.5112557.08516381-2.29883054.27673302s-1.55387989.42570622-2.29885872.72370904c-.34059883.14900141-.59600563.23413701-.74500704.27670481s-.25543501.0638658-.34057062.0638658c-.29800281 0-.44700422-.21286721-.44700422-.65984322v-1.04300986c0-.34057062.0425678-.59600563.14900141-.74500704s.29800281-.29800281.59600563-.44700422c.74497883-.38313842 1.63898728-.70243924 2.68199713-.95784605 1.04300986-.27670481 2.14985731-.40443642 3.32057057-.40443642 2.5329957 0 4.3848502.57470763 5.5768615 1.72415109 1.1707132 1.14941525 1.7667189 2.89483614 1.7667189 5.23626265v6.89657616z" fill="#fff"/><g fill="#f90"><path d="m57.8614107 30.3534317c-7.0030097 5.172425-17.1775886 7.918288-25.9260193 7.918288-12.2605704 0-23.30785974-4.5338234-31.65185396-12.0690012-.65987144-.5960057-.0638658-1.4048503.72370904-.9365763 9.02513542 5.2362909 20.15758862 8.4078883 31.67318022 8.4078883 7.7692866 0 16.30485-1.6177457 24.1592722-4.9383163 1.1707132-.5321398 2.1711553.766305 1.0217118 1.6177175"/><path d="m60.7775731 27.0328639c-.8940085-1.1494152-5.9174603-.5534096-8.195021-.276733-.6811413.0851638-.7875749-.5108418-.1702712-.957846 4.0016835-2.8097006 10.5790153-2.0008277 11.3452921-1.0642797.7662769.9578743-.2128672 7.5351496-3.959144 10.685449-.5747358.4895438-1.1281454.234137-.8727104-.4044365.8514124-2.1072895 2.7458347-6.8540083 1.8518545-7.9821538"/></g></g></svg>