<svg height="64" viewBox="0 0 64 64" width="64" xmlns="http://www.w3.org/2000/svg" xmlns:xlink="http://www.w3.org/1999/xlink"><linearGradient id="a" x1="50.000048%" x2="50.000048%" y1="0%" y2="99.999921%"><stop offset="0" stop-color="#fff"/><stop offset="1" stop-color="#fff" stop-opacity="0"/></linearGradient><mask id="b" fill="#fff"><path d="m45.3834995 63.3979613c1.008.39275 2.1575.3675 3.175-.122l13.1765-6.34025c1.3845-.66625 2.2650005-2.06775 2.2650005-3.605v-42.991225c0-1.5373-.8805005-2.938575-2.2650005-3.604825l-13.1765-6.3404975c-1.33525-.6424855-2.898-.4851165-4.06975.3668425-.1675.121705-.327.25759-.4765.40734l-25.225 23.013165-10.98745003-8.340375c-1.022825-.7764-2.453475-.7128-3.403425.151325l-3.524035 3.205625c-1.16197251 1.057-1.16330501 2.885025-.0028775 3.943725l9.52868753 8.69315-9.52868753 8.69325c-1.16042751 1.05875-1.15909501 2.88675.0028775 3.94375l3.524035 3.2055c.94995.86425 2.3806.92775 3.403425.1515l10.98745003-8.3405 25.225 23.01325c.399.39925.8675.7 1.37125.89625zm2.62625-46.091675-19.14 14.528675 19.14 14.52875z" fill="#fff" fill-rule="evenodd"/></mask><g fill="none" fill-rule="evenodd" mask="url(#b)"><g transform="translate(-.039063 -.000083)"><g fill-rule="nonzero"><path d="m61.774062 6.74461969-13.18675-6.34923c-1.52625-.7349205-3.3505-.42491475-4.5485.772985l-43.16882253 39.35992001c-1.1611325 1.05875-1.1597975 2.88675.00288 3.94375l3.5261675 3.2055c.95055.86425 2.382075.92775 3.4055.1515l51.98527503-39.43727501c1.744-1.32305 4.249-.07915 4.249 2.10995001v-.1531c0-1.53662501-.88025-2.93740001-2.26475-3.60400001z" fill="#0065a9"/><path d="m61.774062 56.9255447-13.18675 6.34925c-1.52625.73475-3.3505.42475-4.5485-.773l-43.16882253-39.35995c-1.1611325-1.058675-1.1597975-2.88675.00288-3.943725l3.5261675-3.205625c.95055-.864125 2.382075-.92775 3.4055-.151325l51.98527503 39.437125c1.744 1.323 4.249.07925 4.249-2.11v.15325c0 1.5365-.88025 2.93725-2.26475 3.604z" fill="#007acc"/><path d="m48.588062 63.2757947c-1.52675.73425-3.351.424-4.549-.774 1.476 1.476 4 .4305 4-1.657v-58.01960001c0-2.0875075-2.524-3.13294375-4-1.6568475 1.198-1.198011 3.02225-1.50845425 4.549-.7741825l13.1845 6.340505c1.3855.66625 2.2665 2.067525 2.2665 3.60482501v42.9913c0 1.53725-.881 2.9385-2.2665 3.60475z" fill="#1f9cf0"/></g><path d="m45.383562 63.3980028c1.008.3925 2.1575.3675 3.17475-.122l13.1765-6.3405c1.38475-.66625 2.26525-2.0675 2.26525-3.60475v-42.991275c0-1.53730005-.8805-2.93857505-2.265-3.60482505l-13.17675-6.3404875c-1.335-.64248725-2.89775-.48511825-4.06975.36684-.16725.121705-.32675.25759-.4765.40734l-25.224825 23.01315755-10.98745003-8.340375c-1.0228-.7764-2.453475-.712775-3.403425.151325l-3.5240225 3.205625c-1.16197251 1.057-1.16330501 2.88505-.0028775 3.94375l9.52870003 8.693175-9.52870003 8.69325c-1.16042751 1.05875-1.15909501 2.88675.0028775 3.94375l3.5240225 3.2055c.94995.86425 2.380625.92775 3.403425.1515l10.98745003-8.3405 25.224825 23.01325c.399.39925.86775.7 1.3715.89625zm2.62625-46.091725-19.14 14.528725 19.14 14.52875z" fill="url(#a)" fill-rule="evenodd" opacity=".25" transform="translate(0 .000042)"/></g></g></svg>