<svg height="48" viewBox="0 0 64 48" width="64" xmlns="http://www.w3.org/2000/svg"><path d="m62.1325989 14.5218836c-1.2104604-2.8353324-2.9045223-5.35894576-5.0829141-7.57229669-2.1783918-2.17839179-4.7020052-3.90741289-7.5373376-5.08291417-2.8695632-1.24396295-5.9816555-1.86667274-9.1971686-1.86667274-3.4573139 0-6.7769762.7261306-9.8883402 2.14343264-2.8353324 1.31388124-5.3589457 3.11209232-7.5031067 5.42813574-.9337005-.13837995-1.9016319-.20756993-2.8695632-.20756993-2.6969525 0-5.324715.51856067-7.8140975 1.59064115-2.38596171 1.0028905-4.52939435 2.4551517-6.36183625 4.3218244-1.83244191 1.8324419-3.2847031 3.9758746-4.2875936 6.3967954-1.03712134 2.4901109-1.59064115 5.1178734-1.59064115 7.8148258 0 2.6969525.51856067 5.3247149 1.59064115 7.8140975 1.0028905 2.3859617 2.45515169 4.5293943 4.2875936 6.3967954 1.8324419 1.8324419 3.97587454 3.3881239 6.36183625 4.3910144 2.4893825 1.0371213 5.117145 1.6598311 7.8140975 1.6598311h20.2267792c3.2155131 0 6.3276055-.7261306 9.2313995-1.9708218 2.8353324-1.2104605 5.3589458-2.9737124 7.5373376-5.1521042s3.9074129-4.7369643 5.0829141-7.5722967c1.2446913-2.9387532 1.8674011-6.0508455 1.8674011-9.2663586 0-3.2155132-.6227098-6.3276055-1.8674011-9.2663587zm-42.0441996 28.6978173c-8.609418 0-15.59396409-7.053736-15.59396409-15.663154 0-8.6094181 6.98454609-15.6281949 15.55900499-15.6281949 4.0108336 0 7.6757175 1.486492 10.4418599 3.9758745l7.0187769 7.192116c.6569406.6911714.6569406 1.7982111-.0342309 2.4551517-.6911714.6569406-1.798211.6569406-2.4551517-.0342308l-6.984546-7.192116c-2.1092018-1.8674011-4.9095751-2.9737124-7.9524774-2.9737124-6.672827 0-12.10169107 5.3939049-12.10169107 12.0667319s5.42959237 12.1016911 12.10241937 12.1016911l3.8724537.1034208c1.2796504 1.3138812 2.7311833 2.5935316 4.2875936 3.5956938h-8.1600473zm20.2267793-.2075699c-5.324715 0-10.1308692-2.1434326-13.6231423-5.6357057l-9.2663586-9.3005894c-.6569406-.6911715-.6569406-1.7982111.0342308-2.4551517.6911715-.6569407 1.7982111-.6569407 2.4551517.0342308l9.2321278 9.2321278c2.8695633 2.8695632 6.811207 4.6328152 11.1679906 4.6328152 8.7128388 0 15.7665748-7.0537361 15.7665748-15.7665749s-7.053736-15.76657486-15.7665748-15.76657486c-3.699843 0-7.1229261 1.27965041-9.8198785 3.42308306-1.0371213-.6911715-2.1434327-1.2446913-3.3189339-1.72902111 3.4573138-3.21551312 8.0558982-5.18633498 13.1388124-5.18633498 10.6494298 0 19.2588478 8.60941799 19.2588478 19.25884789s-8.609418 19.2588479-19.2588478 19.2588479z" fill="#da1f26"/></svg>