<svg width="20px" height="16px" viewBox="0 0 20 16">
    <g stroke="none" stroke-width="1" fill="none" fill-rule="evenodd">
        <g transform="translate(0.000000, -0.000000)" fill="currentColor" fill-rule="nonzero">
            <path d="M17.7777778,0 L2.22222222,0 C0.994930556,0 0,0.994930556 0,2.22222222 L0,13.3333333 C0,14.560625 0.994930556,15.5555556 2.22222222,15.5555556 L17.7777778,15.5555556 C19.0050694,15.5555556 20,14.560625 20,13.3333333 L20,2.22222222 C20,0.994930556 19.0050694,0 17.7777778,0 Z M6.11111111,3.33333333 C7.33840278,3.33333333 8.33333333,4.32826389 8.33333333,5.55555556 C8.33333333,6.78284722 7.33840278,7.77777778 6.11111111,7.77777778 C4.88381944,7.77777778 3.88888889,6.78284722 3.88888889,5.55555556 C3.88888889,4.32826389 4.88381944,3.33333333 6.11111111,3.33333333 Z M9.44444444,12.2222222 L2.77777778,12.2222222 C2.47097222,12.2222222 2.22222222,11.9734722 2.22222222,11.6666667 C2.22222222,10.1325 3.46583333,8.88888889 5,8.88888889 L7.22222222,8.88888889 C8.75638889,8.88888889 10,10.1325 10,11.6666667 C10,11.9734722 9.75125,12.2222222 9.44444444,12.2222222 Z M17.2222222,10 L12.7777778,10 C12.4709722,10 12.2222222,9.75125 12.2222222,9.44444444 C12.2222222,9.13763889 12.4709722,8.88888889 12.7777778,8.88888889 L17.2222222,8.88888889 C17.5290278,8.88888889 17.7777778,9.13763889 17.7777778,9.44444444 C17.7777778,9.75125 17.5290278,10 17.2222222,10 Z M17.2222222,7.77777778 L12.7777778,7.77777778 C12.4709722,7.77777778 12.2222222,7.52902778 12.2222222,7.22222222 C12.2222222,6.91541667 12.4709722,6.66666667 12.7777778,6.66666667 L17.2222222,6.66666667 C17.5290278,6.66666667 17.7777778,6.91541667 17.7777778,7.22222222 C17.7777778,7.52902778 17.5290278,7.77777778 17.2222222,7.77777778 Z M17.2222222,5.55555556 L12.7777778,5.55555556 C12.4709722,5.55555556 12.2222222,5.30680556 12.2222222,5 C12.2222222,4.69319444 12.4709722,4.44444444 12.7777778,4.44444444 L17.2222222,4.44444444 C17.5290278,4.44444444 17.7777778,4.69319444 17.7777778,5 C17.7777778,5.30680556 17.5290278,5.55555556 17.2222222,5.55555556 Z" opacity="0.4"></path>
            <path d="M6.11111111,7.77777778 C7.33840278,7.77777778 8.33333333,6.78284722 8.33333333,5.55555556 C8.33333333,4.32826389 7.33840278,3.33333333 6.11111111,3.33333333 C4.88381944,3.33333333 3.88888889,4.32826389 3.88888889,5.55555556 C3.88888889,6.78284722 4.88381944,7.77777778 6.11111111,7.77777778 Z M7.22222222,8.88888889 L5,8.88888889 C3.46583333,8.88888889 2.22222222,10.1325 2.22222222,11.6666667 C2.22222222,11.9734722 2.47097222,12.2222222 2.77777778,12.2222222 L9.44444444,12.2222222 C9.75125,12.2222222 10,11.9734722 10,11.6666667 C10,10.1325 8.75638889,8.88888889 7.22222222,8.88888889 Z"></path>
        </g>
    </g>
</svg>