<svg width="20px" height="20px" viewBox="0 0 20 20">
    <g stroke="none" stroke-width="1" fill="none" fill-rule="evenodd">
        <path d="M2.81226596,7.7620839 C2.85082918,7.83970426 2.95227136,7.90262121 3.03885815,7.90262121 C3.0391621,7.90262121 3.03946604,7.90231726 3.03976999,7.90231726 L3.03992196,7.90262121 L3.04014992,7.90224128 C3.12643276,7.90167138 3.22684912,7.83932433 3.26526038,7.7620839 L4.04636515,5.88912693 L4.05267205,5.87651314 L4.06156248,5.87206793 L5.93778688,5.08970937 C6.01468537,5.05126012 6.07699442,4.9500459 6.07745034,4.864105 L6.07931202,4.86315517 L6.07745034,4.86228132 C6.07699442,4.77603647 6.01476136,4.67505021 5.93778688,4.63660097 L4.06068864,3.85382448 L4.05267205,3.84979719 L4.04659311,3.83756334 L3.26526038,1.96407446 C3.22684912,1.88683403 3.12643276,1.82463896 3.04014992,1.82406906 L3.03992196,1.82368912 L3.03976999,1.82399307 C3.03946604,1.82399307 3.0391621,1.82368912 3.03885815,1.82368912 C2.95227136,1.82368912 2.85082918,1.8864541 2.81226596,1.96407446 L2.02580412,3.85010113 L0.139891425,4.63660097 C0.0627649738,4.67520219 0,4.77656838 0,4.86307918 C0,4.94917206 0.0627649738,5.05110815 0.139891425,5.08970937 L2.02580412,5.87613321 L2.81226596,7.7620839 Z M7.90245974,2.43150635 L8.37433684,3.56306156 C8.39747477,3.60960338 8.45834008,3.64736875 8.51027696,3.64736875 C8.56221383,3.64736875 8.62300315,3.60960338 8.64614109,3.56306156 L9.11801819,2.43150635 L10.2495734,1.95962924 C10.2958873,1.93649131 10.3335766,1.87524607 10.3335766,1.82361314 C10.3335766,1.77175225 10.2958873,1.71088694 10.2495734,1.68774901 L9.11801819,1.2158719 L8.64614109,0.0842407025 C8.62300315,0.0376228921 8.56221383,9.49985134e-06 8.51027696,9.49985134e-06 C8.45834008,9.49985134e-06 8.39747477,0.0376228921 8.37433684,0.0842407025 L7.90245974,1.2158719 L6.77090452,1.68774901 C6.72466664,1.71088694 6.68697727,1.77175225 6.68697727,1.82361314 C6.68697727,1.87524607 6.72466664,1.93649131 6.77090452,1.95962924 L7.90245974,2.43150635 Z M19.4659563,1.82368912 L18.1770707,0.53423365 C17.4649238,-0.178027224 16.3101167,-0.17810321 15.5979698,0.534157663 L1.08163198,15.0495077 C0.369409104,15.7616926 0.369333117,16.9163097 1.08148001,17.6285326 L2.37070753,18.91833 C3.08281643,19.6306289 4.23758556,19.6307049 4.94980844,18.918444 L19.4658803,4.40263807 C20.1780272,3.69049117 20.1780272,2.53591201 19.4659563,1.82368912 Z M13.7429077,7.1165773 L12.8832327,6.25690232 L16.8862475,2.25377357 L17.7471003,3.11344855 L13.7429077,7.1165773 Z M19.3121213,14.3628923 L17.4287542,13.5774943 L17.4259427,13.5760885 L16.6395948,11.6903658 C16.6009936,11.6127454 16.4997034,11.5499805 16.4131926,11.5499805 C16.3265298,11.5499805 16.2251636,11.6127454 16.1865624,11.6903658 L15.4002146,13.5761645 L15.3983529,13.5771143 L13.5141879,14.3628923 C13.4371754,14.4014935 13.3745244,14.5027077 13.3744105,14.5891426 L13.3738026,14.5894465 L13.3744484,14.5897504 C13.3746004,14.6756913 13.4372514,14.7774755 13.5141879,14.8160007 L15.397479,15.6013227 L15.4002906,15.6027285 L16.1865624,17.4883752 C16.2251636,17.5659956 16.3265298,17.6289125 16.4131926,17.6289125 C16.4997034,17.6289125 16.6009936,17.5659956 16.6395948,17.4883752 L17.4258667,15.6028805 L17.4259427,15.6028045 L17.429666,15.6009428 L19.3121213,14.8160007 C19.3891338,14.7774755 19.4517848,14.6756913 19.4518988,14.5897504 L19.4525827,14.5894465 L19.4519748,14.5891426 C19.4518228,14.5027077 19.3892098,14.4014935 19.3121213,14.3628923 Z" fill="currentColor" fill-rule="nonzero"></path>
    </g>
</svg>