<svg width="16px" height="14px" viewBox="0 0 16 14">
    <g stroke="none" stroke-width="1" fill="none" fill-rule="evenodd">
        <g fill="currentColor" fill-rule="nonzero">
            <path d="M16,6.0035 C16,5.17525 15.328625,4.50415625 14.5,4.50415625 L9.9213125,4.50415625 C10.6328125,3.3195625 11.0001562,1.97678125 11.0001562,1.5034375 C11.0001562,0.76634375 10.4217188,0 9.454375,0 C7.48159375,0 8.6305,2.379625 6.07225,4.4255625 L5.563,4.832625 C5.1946875,5.126875 5.00890625,5.55946875 5.00671875,5.99678125 C5.00596875,5.99753125 5,6.0035 5,6.0035 L5,11.0013125 C5,11.4733125 5.22228125,11.91775 5.5999375,12.2008438 L6.66675,13.000625 C7.53209375,13.6493437 8.5844375,14 9.66590625,14 L11.5,14 C12.328625,14 13,13.3289062 13,12.5006563 C13,12.3870625 12.985,12.2774375 12.9610625,12.1710938 C13.5625,11.975875 14,11.4178125 14,10.7514063 C14,10.4655312 13.9157187,10.2011875 13.7769062,9.973875 C14.4728437,9.8438125 15,9.23584375 15,8.50240625 C15,8.11178125 14.8470938,7.7593125 14.6023437,7.49253125 C15.3823125,7.43909375 16,6.79671875 16,6.0035 Z" opacity="0.4"></path>
            <path d="M4,13 L4,6 C4,5.44775 3.5523125,5 3,5 L1,5 C0.4476875,5 0,5.44775 0,6 L0,13 C0,13.5523125 0.4476875,14 1,14 L3,14 C3.5523125,14 4,13.5523125 4,13 Z"></path>
        </g>
    </g>
</svg>