<svg width="20px" height="14px" viewBox="0 0 20 14">
    <g stroke="none" stroke-width="1" fill="none" fill-rule="evenodd">
        <g fill="currentColor" fill-rule="nonzero">
            <path d="M4,2 L16,2 L16,10 L18,10 L18,1.5 C18,0.67578125 17.3242188,0 16.5,0 L3.5,0 C2.67578125,0 2,0.67578125 2,1.5 L2,10 L4,10 L4,2 Z M19.5,11 L0.5,11 C0.2265625,11 0,11.2265625 0,11.5 L0,12 C0,13.1015625 0.8984375,14 2,14 L18,14 C19.1015625,14 20,13.1015625 20,12 L20,11.5 C20,11.2265625 19.7734375,11 19.5,11 Z" opacity="0.4"></path>
            <path d="M4,2 L4,10 L16,10 L16,2 L4,2 Z M8.56690625,7.057875 C8.81103125,7.302 8.81103125,7.6985 8.56690625,7.942625 C8.4448125,8.0646875 8.28515625,8.12525 8.125,8.12525 C7.96484375,8.12525 7.8051875,8.0646875 7.68309375,7.942625 L6.18309375,6.442625 C5.93896875,6.1985 5.93896875,5.802 6.18309375,5.557875 L7.68309375,4.057875 C7.92725,3.81371875 8.32275,3.81371875 8.56690625,4.057875 C8.8110625,4.30203125 8.81103125,4.6985 8.56690625,4.942625 L7.50878125,6.00025 L8.56690625,7.057875 Z M13.8169063,6.442625 L12.3169063,7.942625 C12.1948125,8.0646875 12.0351562,8.12525 11.875,8.12525 C11.7148438,8.12525 11.5551875,8.0646875 11.4330937,7.942625 C11.1889688,7.6985 11.1889688,7.302 11.4330937,7.057875 L12.4912187,6.00025 L11.4330937,4.942625 C11.1889688,4.6985 11.1889688,4.302 11.4330937,4.057875 C11.6772187,3.81375 12.07275,3.81371875 12.3169063,4.057875 L13.8169063,5.557875 C14.0610312,5.802 14.0610312,6.1985 13.8169063,6.442625 Z"></path>
        </g>
    </g>
</svg>