<?xml version="1.0" encoding="UTF-8"?>
<svg preserveAspectRatio="xMidYMid slice" viewBox="0 0 300 300" version="1.1" xmlns="http://www.w3.org/2000/svg" xmlns:xlink="http://www.w3.org/1999/xlink">
    <title>banner</title>
    <defs>
        <rect id="path-1" x="0" y="0" width="300" height="300" rx="8"></rect>
        <radialGradient cx="52.5826823%" cy="32.8180745%" fx="52.5826823%" fy="32.8180745%" r="57.3179728%" id="radialGradient-3">
            <stop stop-color="#FFFFFF" stop-opacity="0.347093702" offset="0%"></stop>
            <stop stop-color="#FFFFFF" stop-opacity="0" offset="100%"></stop>
        </radialGradient>
        <rect id="path-4" x="0" y="0" width="300" height="300" rx="8"></rect>
        <path d="M0,213.566493 L0.80690039,213.290253 C1.61380078,213.014013 3.22760156,212.461533 4.95269894,212.071194 C6.67779633,211.680855 8.51419032,211.452657 10.2671119,211.284511 C12.0200334,211.116364 13.6894825,211.00827 15.3867557,211.170411 C17.0840289,211.332552 18.8091263,211.764928 20.5063996,212.131246 C22.2036728,212.497564 23.8731219,212.797825 25.5147468,212.689731 C27.1563717,212.581637 28.7701725,212.065189 30.4952699,211.554745 C32.2203673,211.044302 34.0567613,210.539864 35.7540345,210.143519 C37.4513077,209.747175 39.0094602,209.458924 40.6510851,208.906444 C42.2927101,208.353964 44.0178075,207.537255 45.6594324,206.858665 C47.3010573,206.180076 48.8592098,205.639606 50.556483,204.51663 C52.2537563,203.393655 54.0901503,201.688173 55.8430718,200.565197 C57.5959933,199.442221 59.2654424,198.901752 60.9627156,198.56546 C62.6599889,198.229168 64.3850863,198.097053 66.1101836,198.271204 C67.835281,198.445355 69.5603784,198.925773 71.2298275,198.97982 C72.8992766,199.033867 74.5130774,198.661543 76.2103506,197.700708 C77.9076238,196.739874 79.6883695,195.190527 81.4134669,194.6981 C83.1385643,194.205672 84.8080134,194.770162 86.4218141,195.106454 C88.0356149,195.442747 89.5937674,195.55084 91.3188648,195.010371 C93.0439622,194.469901 94.9360045,193.280868 96.6611018,193.521077 C98.3861992,193.761286 99.9443517,195.430736 101.558152,196.151362 C103.171953,196.871988 104.841402,196.64379 106.538676,196.115331 C108.235949,195.586872 109.961046,194.758152 111.686144,194.896272 C113.411241,195.034392 115.136338,196.139352 116.805787,197.274338 C118.475237,198.409324 120.089037,199.574336 121.786311,200.343004 C123.483584,201.111672 125.264329,201.483995 127.017251,201.502011 C128.770173,201.520027 130.49527,201.183735 132.136895,200.895484 C133.77852,200.607234 135.336672,200.367025 137.033945,202.126554 C138.731219,203.886082 140.567613,207.645349 142.320534,209.122632 C144.073456,210.599916 145.742905,209.795217 147.356706,209.729159 C148.970506,209.663102 150.528659,210.335686 152.253756,209.687123 C153.978854,209.038559 155.870896,207.068848 157.595993,206.144044 C159.321091,205.219241 160.879243,205.339345 162.46522,205.723679 C164.051196,206.108013 165.664997,206.756576 167.36227,206.70253 C169.059544,206.648483 170.840289,205.891825 172.593211,206.486342 C174.346132,207.080858 176.07123,209.026549 177.712855,209.46493 C179.35448,209.90331 180.912632,208.834382 182.609905,208.93647 C184.307179,209.038559 186.143573,210.311665 187.896494,211.290516 C189.649416,212.269366 191.318865,212.953961 193.016138,212.725763 C194.713411,212.497564 196.438509,211.356573 198.163606,210.665973 C199.888703,209.975373 201.613801,209.735164 203.28325,209.585034 C204.952699,209.434903 206.5665,209.374851 208.235949,208.684251 C209.905398,207.993651 211.630495,206.672503 213.383417,206.486342 C215.136338,206.30018 216.917084,207.249004 218.586533,208.516105 C220.255982,209.783206 221.814135,211.368584 223.483584,213.554483 C225.153033,215.740382 226.933779,218.526803 228.631052,218.761006 C230.328325,218.99521 231.942126,216.677196 233.583751,215.025761 C235.225376,213.374326 236.894825,212.389471 238.619922,211.428636 C240.345019,210.467801 242.125765,209.530987 243.878687,208.215844 C245.631608,206.900702 247.356706,205.20723 249.081803,203.898093 C250.8069,202.588955 252.531998,201.664152 254.201447,201.18974 C255.870896,200.715328 257.484697,200.691307 259.154146,201.045615 C260.823595,201.399922 262.548692,202.132559 264.27379,200.553187 C265.998887,198.973814 267.723984,195.082434 269.421258,191.443272 C271.118531,187.80411 272.78798,184.417167 274.457429,182.105158 C276.126878,179.79315 277.796327,178.556075 278.714524,177.451115 C279.632721,176.346155 279.799666,175.373309 280.578742,175.151116 C281.357819,174.928923 282.749026,175.457383 284.362827,175.433362 C285.976628,175.409341 287.813022,174.83284 288.759043,174.388454 C289.705064,173.944068 289.760712,173.631796 290.595437,173.109342 C291.430161,172.586889 293.043962,171.854252 294.713411,171.151642 C296.38286,170.449031 298.107958,169.776447 298.998331,169.332061 C299.888703,168.887675 299.944352,168.671487 299.972176,168.563393 L300,168.455299 L300,299.5 L0.80690039,299.5 L0,213.566493 Z" id="path-5"></path>
        <path d="M88.2420091,116 L88.5866153,116.039242 C88.9213756,116.11602 89.2265982,116.300287 89.5022831,116.545977 C89.7385845,116.832615 89.9158105,117.149964 89.9896547,117.521058 L90.0273973,117.91092 L90.0273973,126.264368 L123.267123,126.264368 L123.611729,126.304463 C123.94649,126.3838 124.251712,126.578305 124.527397,126.864943 C124.763699,127.110632 124.911387,127.417744 124.970462,127.786279 L125,128.175287 L125,133.143678 L124.970462,133.53354 C124.911387,133.904634 124.763699,134.221983 124.527397,134.508621 C124.251712,134.75431 123.94649,134.907866 123.611729,134.969289 L123.267123,135 L84.4086758,135 L83.8671518,134.970142 C83.3354737,134.911279 82.8333333,134.76796 82.3607306,134.563218 C81.6780822,134.235632 81.1004566,133.853448 80.6278539,133.416667 C80.1027397,132.87069 79.6826484,132.324713 79.4200913,131.66954 C79.18379,131.137213 79.0656393,130.604885 79.0213328,130.049524 L79,129.485632 L79,117.91092 L79.0311787,117.521058 C79.0951769,117.149964 79.2625571,116.832615 79.5776256,116.545977 C79.8533105,116.300287 80.1585331,116.11602 80.5154466,116.039242 L80.890411,116 L88.2420091,116 Z M185.242009,116 C185.714612,116 186.134703,116.218391 186.502283,116.545977 C186.738584,116.832615 186.915811,117.149964 186.989655,117.521058 L187.027397,117.91092 L187.027397,126.264368 L220.267123,126.264368 C220.739726,126.264368 221.159817,126.482759 221.527397,126.864943 C221.763699,127.110632 221.911387,127.417744 221.970462,127.786279 L222,128.175287 L222,133.143678 C222,133.689655 221.842466,134.126437 221.527397,134.508621 C221.251712,134.75431 220.94649,134.907866 220.611729,134.969289 L220.267123,135 L181.408676,135 C180.673516,135 179.990868,134.836207 179.360731,134.563218 C178.678082,134.235632 178.100457,133.853448 177.627854,133.416667 C177.10274,132.87069 176.682648,132.324713 176.420091,131.66954 C176.18379,131.137213 176.065639,130.604885 176.021333,130.049524 L176,129.485632 L176,117.91092 C176,117.364943 176.157534,116.928161 176.577626,116.545977 C176.853311,116.300287 177.158533,116.11602 177.515447,116.039242 L177.890411,116 L185.242009,116 Z M170.255172,126 L170.602155,126.037177 C170.939224,126.109914 171.246552,126.284483 171.524138,126.517241 C171.762069,126.788793 171.910776,127.08944 171.970259,127.419181 L172,127.758621 L172,133.241379 L171.970259,133.610722 C171.910776,133.962284 171.762069,134.262931 171.524138,134.534483 C171.246552,134.767241 170.939224,134.912716 170.602155,134.970905 L170.255172,135 L127.744828,135 L127.376365,134.970905 C127.034339,134.912716 126.766667,134.767241 126.528736,134.534483 C126.251149,134.262931 126.092529,133.962284 126.030568,133.610722 L126,133.241379 L126,127.758621 L126.030568,127.419181 C126.092529,127.08944 126.251149,126.788793 126.528736,126.517241 C126.766667,126.284483 127.034339,126.109914 127.376365,126.037177 L127.744828,126 L170.255172,126 Z M109.43508,89 L109.749431,89.0388853 C110.063781,89.1149651 110.378132,89.2975567 110.692483,89.5410122 C110.928246,89.8656195 111.105068,90.1902269 111.178744,90.5148342 L111.216401,90.8394415 L111.216401,97.547993 L113.678815,97.547993 L113.678815,90.8394415 L113.709104,90.4844023 C113.770501,90.139507 113.927677,89.8250436 114.202733,89.5410122 C114.438497,89.2975567 114.7332,89.1149651 115.064742,89.0388853 L115.407745,89 L122.218679,89 L122.53303,89.0388853 C122.84738,89.1149651 123.161731,89.2975567 123.476082,89.5410122 C123.711845,89.8656195 123.888667,90.1902269 123.962343,90.5148342 L124,90.8394415 L124,118.160558 L123.962343,118.54603 C123.888667,118.911213 123.711845,119.215532 123.476082,119.458988 C123.201025,119.743019 122.896498,119.905323 122.5625,119.968723 L122.218679,120 L115.407745,120 L115.04264,119.968723 C114.8167,119.926456 114.623505,119.840232 114.449957,119.703289 L114.202733,119.458988 C113.927677,119.215532 113.770501,118.911213 113.709104,118.54603 L113.678815,118.160558 L113.678815,106.853403 L111.216401,106.853403 L111.216401,118.052356 L111.178744,118.437827 C111.105068,118.80301 110.928246,119.10733 110.692483,119.350785 C110.417426,119.634817 110.112899,119.79712 109.778901,119.86052 L109.43508,119.891798 L102.728929,119.891798 L102.363824,119.86052 C102.024915,119.79712 101.759681,119.634817 101.523918,119.350785 C101.248861,119.10733 101.091686,118.80301 101.030289,118.437827 L101,118.052356 L101,90.8394415 L101.030289,90.4844023 C101.091686,90.139507 101.248861,89.8250436 101.523918,89.5410122 C101.759681,89.2975567 102.054385,89.1149651 102.385927,89.0388853 L102.728929,89 L109.43508,89 Z M207.43508,89 C207.854214,89 208.273349,89.2164049 208.692483,89.5410122 C208.928246,89.8656195 209.105068,90.1902269 209.178744,90.5148342 L209.216401,90.8394415 L209.216401,97.547993 L211.678815,97.547993 L211.678815,90.8394415 C211.678815,90.3525305 211.835991,89.9197208 212.202733,89.5410122 C212.438497,89.2975567 212.7332,89.1149651 213.064742,89.0388853 L213.407745,89 L220.218679,89 C220.637813,89 221.056948,89.2164049 221.476082,89.5410122 C221.711845,89.8656195 221.888667,90.1902269 221.962343,90.5148342 L222,90.8394415 L222,118.160558 C222,118.701571 221.790433,119.13438 221.476082,119.458988 C221.201025,119.743019 220.896498,119.905323 220.5625,119.968723 L220.218679,120 L213.407745,120 C213.014806,120 212.710279,119.908704 212.449957,119.703289 L212.202733,119.458988 C211.927677,119.215532 211.770501,118.911213 211.709104,118.54603 L211.678815,118.160558 L211.678815,106.853403 L209.216401,106.853403 L209.216401,118.052356 C209.216401,118.593368 209.006834,119.026178 208.692483,119.350785 C208.417426,119.634817 208.112899,119.79712 207.778901,119.86052 L207.43508,119.891798 L200.728929,119.891798 C200.205011,119.891798 199.838269,119.729494 199.523918,119.350785 C199.248861,119.10733 199.091686,118.80301 199.030289,118.437827 L199,118.052356 L199,90.8394415 C199,90.3525305 199.157175,89.9197208 199.523918,89.5410122 C199.759681,89.2975567 200.054385,89.1149651 200.385927,89.0388853 L200.728929,89 L207.43508,89 Z M167.69,90 L168.034531,90.0383674 C168.369219,90.1134342 168.674375,90.2935943 168.95,90.5338078 C169.18625,90.8540925 169.363438,91.1743772 169.437266,91.539702 L169.475,91.9217082 L169.475,97.2064057 L169.437266,97.5867438 C169.363438,97.9470641 169.18625,98.247331 168.95,98.4875445 C168.674375,98.7677936 168.369219,98.9279359 168.034531,98.9904915 L167.69,99.0213523 L139.445,99.0213523 L139.445,100.676157 L166.64,100.676157 L166.984531,100.714524 C167.319219,100.789591 167.624375,100.969751 167.9,101.209964 C168.13625,101.530249 168.313438,101.850534 168.387266,102.215859 L168.425,102.597865 L168.425,107.455516 L168.387266,107.835854 C168.313438,108.196174 168.13625,108.496441 167.9,108.736655 C167.624375,109.016904 167.319219,109.177046 166.984531,109.239602 L166.64,109.270463 L139.445,109.270463 L139.445,110.871886 L168.215,110.871886 L168.559531,110.910254 C168.894219,110.98532 169.199375,111.16548 169.475,111.405694 C169.71125,111.725979 169.888438,112.046263 169.962266,112.411588 L170,112.793594 L170,118.185053 L169.962266,118.565391 C169.888438,118.925712 169.71125,119.225979 169.475,119.466192 C169.199375,119.746441 168.894219,119.906584 168.559531,119.969139 L168.215,120 L137.03,120 L136.188209,119.979653 C131.002387,119.722565 128.293359,117.027833 128.022563,111.817042 L128,110.925267 L128,91.8149466 L128.031172,91.4646352 C128.095156,91.1243327 128.2625,90.8140569 128.5775,90.5338078 C128.81375,90.2935943 129.109062,90.1134342 129.463437,90.0383674 L129.8375,90 L167.69,90 Z M75.2551391,68 C75.6847486,68 76.1056368,68.0373187 76.5147352,68.1088895 C89.3904574,69.0954475 97.1027828,78.4236656 99.6551011,96.0962652 L99.8854754,97.8758117 L99.8854754,97.8758117 L99.8904464,98.0865879 L99.9726116,99.0282614 L99.9726116,99.0282614 L100,100.015343 L100,103.577974 L99.966501,104.665152 C99.7878394,107.485905 98.8945318,109.681122 97.286578,111.288146 C95.6313315,112.895171 93.3875528,113.787962 90.5926092,113.96652 L89.5187424,114 L86.7521161,114 L85.6643097,113.96652 C82.8419246,113.787962 80.6454387,112.895171 79.0374849,111.288146 C77.4295311,109.681122 76.5362234,107.485905 76.3575619,104.665152 L76.3240629,103.577974 L76.3240629,100.015343 L76.3575619,98.9263414 C76.5362234,96.0962511 77.4295311,93.8590211 79.0374849,92.2519966 C80.6454387,90.6449722 82.8419246,89.7521809 85.6643097,89.5736226 L86.7521161,89.5401429 L89.5187424,89.5401429 L90.5926092,89.5736226 L90.9862766,89.6038228 L90.9862766,89.6038228 C89.0844151,83.285033 86.2176773,78.9547473 82.3804908,76.6197514 C81.7382712,79.9720588 78.792313,82.5018916 75.2551391,82.5018916 C71.2482364,82.5018916 68,79.2555325 68,75.2509458 C68,71.246359 71.2482364,68 75.2551391,68 Z M197.770127,61 C201.763076,61 205,64.2832407 205,68.3333233 C205,72.3834059 201.763076,75.6666466 197.770127,75.6666466 C194.191573,75.6666466 191.220263,73.0295228 190.642072,69.5667036 C185.396254,72.6775788 181.940203,79.5317388 180.273617,90.1203039 L194.232309,90.1226993 C194.7625,90.1226993 195.186653,90.3378101 195.557786,90.6604763 C195.796372,90.9428093 195.975311,91.2553922 196.049869,91.5982251 L196.087977,91.9511412 L196.087977,108.084453 C196.087977,110.128005 195.557786,111.633781 194.550424,112.548002 C193.641525,113.377715 192.459958,113.851837 190.938944,113.970367 L190.149841,114 L178.962818,114 C177.054131,114 175.569598,113.516001 174.562235,112.548002 C173.634402,111.748059 173.153088,110.495206 173.047257,108.825471 L173.024682,108.084453 L173.027019,91.8510861 L173.027019,91.8510861 L173,91.5158648 L173,91.5158648 L173.023617,90.9700569 L173.023617,90.9700569 C175.344342,71.9463997 183.179564,61.9734719 196.529282,61.0512734 L197.770127,61 Z M87.72,97 L87.225,97 L86.8322656,97.0297794 C86.4584375,97.0893382 86.13875,97.2382353 85.85,97.4764706 C85.498,97.7729412 85.2868,98.2727059 85.2164,98.9757647 L85.19,99.5411765 L85.19,103.511765 L85.2164,104.071247 C85.27272,104.621496 85.419152,105.02429 85.655696,105.293506 L85.85,105.470588 C86.13875,105.748529 86.4584375,105.907353 86.8322656,105.969393 L87.225,106 L87.72,106 C88.215,106 88.71,105.841176 89.15,105.470588 C89.502,105.216471 89.7132,104.759059 89.7836,104.071247 L89.81,103.511765 L89.81,99.5411765 L89.7836,98.9757647 C89.7132,98.2727059 89.502,97.7729412 89.15,97.4764706 C88.82,97.2382353 88.4590625,97.0893382 88.0903906,97.0297794 L87.72,97 Z M187.3425,97 L183.6575,97 L183.6575,106 L187.3425,106 L187.3425,97 Z" id="path-7"></path>
        <filter x="-3.2%" y="-5.4%" width="106.5%" height="113.5%" filterUnits="objectBoundingBox" id="filter-8">
            <feOffset dx="0" dy="1" in="SourceAlpha" result="shadowOffsetOuter1"></feOffset>
            <feGaussianBlur stdDeviation="1.5" in="shadowOffsetOuter1" result="shadowBlurOuter1"></feGaussianBlur>
            <feColorMatrix values="0 0 0 0 0   0 0 0 0 0   0 0 0 0 0  0 0 0 0.5 0" type="matrix" in="shadowBlurOuter1"></feColorMatrix>
        </filter>
    </defs>
    <g id="Page-1" stroke="none" stroke-width="1" fill="none" fill-rule="evenodd">
        <g id="Desktop-HD" transform="translate(-69.000000, -141.000000)">
            <g id="banner" transform="translate(69.000000, 141.000000)">
                <mask id="mask-2" fill="white">
                    <use xlink:href="#path-1"></use>
                </mask>
                <use id="Mask" fill="#FFFFFF" xlink:href="#path-1"></use>
                <g id="Group" mask="url(#mask-2)">
                    <g id="Rectangle-Copy">
                        <use fill="#059669" xlink:href="#path-4"></use>
                        <use fill="url(#radialGradient-3)" style="mix-blend-mode: overlay;" xlink:href="#path-4"></use>
                    </g>
                    <g id="Group-2" transform="translate(0.000000, 0.500000)">
                        <g id="Group-2-Copy" opacity="0.100000001" transform="translate(150.000000, 151.000000) rotate(90.000000) translate(-150.000000, -151.000000) translate(-1.000000, 43.000000)" stroke="#FFFFFF" stroke-linecap="square">
                            <line x1="0.5" y1="215.5" x2="301.5" y2="215.5" id="Line-Copy"></line>
                            <line x1="0.5" y1="172.5" x2="301.5" y2="172.5" id="Line-Copy-3"></line>
                            <line x1="0.5" y1="129.5" x2="301.5" y2="129.5" id="Line-Copy-5"></line>
                            <line x1="0.5" y1="86.5" x2="301.5" y2="86.5" id="Line-Copy-7"></line>
                            <line x1="0.5" y1="43.5" x2="301.5" y2="43.5" id="Line-Copy-9"></line>
                            <line x1="0.5" y1="0.5" x2="301.5" y2="0.5" id="Line-Copy-11"></line>
                        </g>
                        <mask id="mask-6" fill="white">
                            <use xlink:href="#path-5"></use>
                        </mask>
                        <use id="Mask" fill="#000000" fill-rule="nonzero" opacity="0.600000024" xlink:href="#path-5"></use>
                        <g opacity="0.100000001" mask="url(#mask-6)" stroke="#FFFFFF" stroke-linecap="square">
                            <g transform="translate(-1.000000, 159.500000)">
                                <line x1="0.5" y1="130.5" x2="301.5" y2="130.5" id="Line"></line>
                                <line x1="0.5" y1="120.5" x2="301.5" y2="120.5" id="Line-Copy"></line>
                                <line x1="0.5" y1="110.5" x2="301.5" y2="110.5" id="Line-Copy-2"></line>
                                <line x1="0.5" y1="100.5" x2="301.5" y2="100.5" id="Line-Copy-3"></line>
                                <line x1="0.5" y1="90.5" x2="301.5" y2="90.5" id="Line-Copy-4"></line>
                                <line x1="0.5" y1="80.5" x2="301.5" y2="80.5" id="Line-Copy-5"></line>
                                <line x1="0.5" y1="70.5" x2="301.5" y2="70.5" id="Line-Copy-6"></line>
                                <line x1="0.5" y1="60.5" x2="301.5" y2="60.5" id="Line-Copy-7"></line>
                                <line x1="0.5" y1="50.5" x2="301.5" y2="50.5" id="Line-Copy-8"></line>
                                <line x1="0.5" y1="40.5" x2="301.5" y2="40.5" id="Line-Copy-9"></line>
                                <line x1="0.5" y1="30.5" x2="301.5" y2="30.5" id="Line-Copy-10"></line>
                                <line x1="0.5" y1="20.5" x2="301.5" y2="20.5" id="Line-Copy-11"></line>
                                <line x1="0.5" y1="10.5" x2="301.5" y2="10.5" id="Line-Copy-12"></line>
                                <line x1="0.5" y1="0.5" x2="301.5" y2="0.5" id="Line-Copy-13"></line>
                            </g>
                        </g>
                    </g>
                    <path d="M0,214.066493 L0.80690039,213.790253 C1.61380078,213.514013 3.22760156,212.961533 4.95269894,212.571194 C6.67779633,212.180855 8.51419032,211.952657 10.2671119,211.784511 C12.0200334,211.616364 13.6894825,211.50827 15.3867557,211.670411 C17.0840289,211.832552 18.8091263,212.264928 20.5063996,212.631246 C22.2036728,212.997564 23.8731219,213.297825 25.5147468,213.189731 C27.1563717,213.081637 28.7701725,212.565189 30.4952699,212.054745 C32.2203673,211.544302 34.0567613,211.039864 35.7540345,210.643519 C37.4513077,210.247175 39.0094602,209.958924 40.6510851,209.406444 C42.2927101,208.853964 44.0178075,208.037255 45.6594324,207.358665 C47.3010573,206.680076 48.8592098,206.139606 50.556483,205.01663 C52.2537563,203.893655 54.0901503,202.188173 55.8430718,201.065197 C57.5959933,199.942221 59.2654424,199.401752 60.9627156,199.06546 C62.6599889,198.729168 64.3850863,198.597053 66.1101836,198.771204 C67.835281,198.945355 69.5603784,199.425773 71.2298275,199.47982 C72.8992766,199.533867 74.5130774,199.161543 76.2103506,198.200708 C77.9076238,197.239874 79.6883695,195.690527 81.4134669,195.1981 C83.1385643,194.705672 84.8080134,195.270162 86.4218141,195.606454 C88.0356149,195.942747 89.5937674,196.05084 91.3188648,195.510371 C93.0439622,194.969901 94.9360045,193.780868 96.6611018,194.021077 C98.3861992,194.261286 99.9443517,195.930736 101.558152,196.651362 C103.171953,197.371988 104.841402,197.14379 106.538676,196.615331 C108.235949,196.086872 109.961046,195.258152 111.686144,195.396272 C113.411241,195.534392 115.136338,196.639352 116.805787,197.774338 C118.475237,198.909324 120.089037,200.074336 121.786311,200.843004 C123.483584,201.611672 125.264329,201.983995 127.017251,202.002011 C128.770173,202.020027 130.49527,201.683735 132.136895,201.395484 C133.77852,201.107234 135.336672,200.867025 137.033945,202.626554 C138.731219,204.386082 140.567613,208.145349 142.320534,209.622632 C144.073456,211.099916 145.742905,210.295217 147.356706,210.229159 C148.970506,210.163102 150.528659,210.835686 152.253756,210.187123 C153.978854,209.538559 155.870896,207.568848 157.595993,206.644044 C159.321091,205.719241 160.879243,205.839345 162.46522,206.223679 C164.051196,206.608013 165.664997,207.256576 167.36227,207.20253 C169.059544,207.148483 170.840289,206.391825 172.593211,206.986342 C174.346132,207.580858 176.07123,209.526549 177.712855,209.96493 C179.35448,210.40331 180.912632,209.334382 182.609905,209.43647 C184.307179,209.538559 186.143573,210.811665 187.896494,211.790516 C189.649416,212.769366 191.318865,213.453961 193.016138,213.225763 C194.713411,212.997564 196.438509,211.856573 198.163606,211.165973 C199.888703,210.475373 201.613801,210.235164 203.28325,210.085034 C204.952699,209.934903 206.5665,209.874851 208.235949,209.184251 C209.905398,208.493651 211.630495,207.172503 213.383417,206.986342 C215.136338,206.80018 216.917084,207.749004 218.586533,209.016105 C220.255982,210.283206 221.814135,211.868584 223.483584,214.054483 C225.153033,216.240382 226.933779,219.026803 228.631052,219.261006 C230.328325,219.49521 231.942126,217.177196 233.583751,215.525761 C235.225376,213.874326 236.894825,212.889471 238.619922,211.928636 C240.345019,210.967801 242.125765,210.030987 243.878687,208.715844 C245.631608,207.400702 247.356706,205.70723 249.081803,204.398093 C250.8069,203.088955 252.531998,202.164152 254.201447,201.68974 C255.870896,201.215328 257.484697,201.191307 259.154146,201.545615 C260.823595,201.899922 262.548692,202.632559 264.27379,201.053187 C265.998887,199.473814 267.723984,195.582434 269.421258,191.943272 C271.118531,188.30411 272.78798,184.917167 274.457429,182.605158 C276.126878,180.29315 277.796327,179.056075 278.714524,177.951115 C279.632721,176.846155 279.799666,175.873309 280.578742,175.651116 C281.357819,175.428923 282.749026,175.957383 284.362827,175.933362 C285.976628,175.909341 287.813022,175.33284 288.759043,174.888454 C289.705064,174.444068 289.760712,174.131796 290.595437,173.609342 C291.430161,173.086889 293.043962,172.354252 294.713411,171.651642 C296.38286,170.949031 298.107958,170.276447 298.998331,169.832061 C299.888703,169.387675 299.944352,169.171487 299.972176,169.063393 L300,168.955299" id="Path-Copy" stroke="#FFFFFF" stroke-width="3" fill-rule="nonzero"></path>
                </g>
                <g id="Shape-Copy-4" fill-rule="nonzero" mask="url(#mask-2)">
                    <use fill="black" fill-opacity="1" filter="url(#filter-8)" xlink:href="#path-7"></use>
                    <use fill="#FFFFFF" xlink:href="#path-7"></use>
                </g>
            </g>
        </g>
    </g>
</svg>