<svg height="58" viewBox="0 0 64 58" width="64" xmlns="http://www.w3.org/2000/svg"><g fill="none"><path d="m13.963625 1.90681214 18.0363488-1.90681214 18.0363488 1.90681214 13.9636248 18.74493286-31.9999736 37.2636338-31.9999738-37.2636338z" fill="#fdb300"/><g transform="translate(0 20.651745)"><path d="m12.9615937 0 19.0384089 37.263646-32.0000026-37.263646z" fill="#ea6c00"/><path d="m44.9615097 0 19.0384089 37.263646-32.0000026-37.263646z" fill="#ea6c00" transform="matrix(-1 0 0 1 95.999834 0)"/><path d="m12.9615937 0h38.0768178l-19.0384089 37.263646z" fill="#fdad00"/></g><path d="m32.0000026 0-18.0364302 1.90678693-1.0019787 18.74494437z" fill="#fdd231"/><path d="m51.0383132 0-18.0364302 1.90678693-1.0019787 18.74494437z" fill="#fdd231" transform="matrix(-1 0 0 1 83.038218 0)"/><path d="m50.0362648 20.6517313 13.9637352-18.74494437-1.0021415 18.74494437z" fill="#fdad00" transform="matrix(-1 0 0 1 114.036264 0)"/><path d="m0 20.6517313 13.9635724-18.74494437-1.0019787 18.74494437z" fill="#fdad00"/><path d="m32.0000026 0-19.0384089 20.6517313h38.0768178z" fill="#feeeb7"/></g></svg>