<svg height="24" viewBox="0 0 43 64" width="36" xmlns="http://www.w3.org/2000/svg"><g fill="none"><path d="m10.6666667 64c5.888 0 10.6666666-4.7786667 10.6666666-10.6666667v-10.6666666h-10.6666666c-5.88800003 0-10.6666667 4.7786666-10.6666667 10.6666666s4.77866667 10.6666667 10.6666667 10.6666667z" fill="#0acf83"/><path d="m0 32c0-5.888 4.77866667-10.6666667 10.6666667-10.6666667h10.6666666v21.3333334h-10.6666666c-5.88800003 0-10.6666667-4.7786667-10.6666667-10.6666667z" fill="#a259ff"/><path d="m0 10.6666667c0-5.88800003 4.77866667-10.6666667 10.6666667-10.6666667h10.6666666v21.3333333h-10.6666666c-5.88800003 0-10.6666667-4.7786666-10.6666667-10.6666666z" fill="#f24e1e"/><path d="m21.3333333 0h10.6666667c5.888 0 10.6666667 4.77866667 10.6666667 10.6666667 0 5.888-4.7786667 10.6666666-10.6666667 10.6666666h-10.6666667z" fill="#ff7262"/><path d="m42.6666667 32c0 5.888-4.7786667 10.6666667-10.6666667 10.6666667s-10.6666667-4.7786667-10.6666667-10.6666667 4.7786667-10.6666667 10.6666667-10.6666667 10.6666667 4.7786667 10.6666667 10.6666667z" fill="#1abcfe"/></g></svg>