<svg height="25" viewBox="0 0 64 25" width="64" xmlns="http://www.w3.org/2000/svg"><g fill="none"><path d="m43.8924668 2.21211226-.0141802-.13707533-.2221566.01890694.0141802.13707533zm1.4936484 3.59231905.0047267.07562777.1559823-.0141802c-.0047267-.04726736.0141802-.12289513.0472674-.21742984l-.0141802-.13707533c-.0661743.00472673-.1323486.10398818-.1937962.2930576zm-5.828065 4.52348599c-.0094534-.1276219-.4064992-.62392912-1.1911373-1.4983752-.0141803-.16070901.2552437-.40177253.8082717-.71846381l1.5787297-1.37548006c.3545052-.44903988.5624816-1.17695717.6239291-2.18847858l-.0189069-.23161005c-.0614476-.69955687-.5672083-1.2620384-1.5267356-1.69217134-.5672083-.38286559-1.5881832-.59556869-3.0629247-.63338257-1.2194978.10398818-2.8124077.53884786-4.7740029 1.30930576-.5388479.38759232-1.1533235.77518464-1.8434269 1.16277695l.0094535.11816839c.0425406-.00472673.1087149-.02836041.1843426-.0803545.0803545-.00945347.1276219.02836041.1323486.10398818l.1181684-.06144756.0567209-.00472674.0047267.0519941c.0047267.06144756-.4206795.39704579-1.2809454.99734121l.0661743.12289512-.0567208.00472674-.1418021-.05199409c.0047268.04254062-.0567208.07090103-.1748892.0803545l.0047268.05199409.1370753.17016248c-.0425406.00472674-.1087149-.0141802-.1985229-.04726735-.1985229.01890694-.3923191.12289512-.5861152.32141802l.0803545-.34977843c.2883309-1.24313147.4868538-2.34446086.5908419-3.29926145l-.0141802-.06144756c-.1985229-.12762187-.392319-.30723782-.571935-.53412113.0047268-.1465288.0047268-.23161004 0-.25051698l-.0141802-.0519941-.0567208.01418021c-.6239291.93589365-1.8245199 2.53353028-3.6064993 4.7929099-1.3565731 1.6070901-2.05613 2.50044313-2.0986706 2.68005908-.553028.57193501-.8177252.91698667-.7893648 1.03515507-.1465288.0945347-.2079764.1890695-.1843427.2930576-.0425406.0094535-.070901-.0047267-.0803545-.0472673-.2363368.3828656-.5861152.6286558-1.054062.7373707l-.4915806.1134417c-.0661742.0141802-.0992614.0614475-.0945347.1418021l.0141802.0614475.1843427-.0425406.0141802.0519941-.4159527.160709-.7373707.1701625-.3875924.0236337c-.0567208.0567208.3072378-.0047268.1654358.0283604l-.4821271.1134416c-.2930576.0661743-.4537666.0425406-.482127-.0756277l-.0567208.0141802c.0094535.0519941.0141802.0898079.0047267.1228951l-.0283604-.1181684-.3875923.089808c-.0283604-.179616-.5530281-.8319055-1.5692762-1.9568686-.018907-.2174298.3403249-.53412108 1.072969-.94534708l2.0703101-1.81979321c.4632201-.59556868.7373708-1.55036927.8271788-2.86440177l-.0283604-.30723781c-.0803545-.92644018-.751551-1.67326441-2.0135894-2.24992615-.7468242-.50576071-2.0892171-.77518464-4.0271787-.81772526-1.6070901.13707534-3.7057607.70901034-6.28655838 1.70635155-.70901034.51521418-1.51728212 1.02570163-2.42481536 1.53146234l.01418021.16070901c.06144756-.00472674.14180207-.03781389.24106351-.09453471.10398819-.00945347.16070901.03781388.17016249.13234859l.16070901-.08980797.0803545-.00472674.00472674.07562777c.00472673.07562777-.5577548.51521418-1.69689808 1.31875923l.08980797.14180207-.0803545.00472674-.17488922-.06144757c.00472674.04726736-.07562777.08035451-.24106351.09453472l.00945347.08508124.18906942.20797636c-.06144756.00472674-.1465288-.0141802-.25524372-.05199409-.36868538.03308715-.72791728.29778434-1.08242245.79881832l.08980797.14180206c.30723782-.28360413.48685377-.4254062.53884786-.43013293l.01890694.23161004c-.05199409.00472674-.13234859.03781388-.24106351.09453471l.19379616.29305761c.37341211-.40177253.78463811-.74682423 1.23367799-1.0351551.22215657.05672083.34032496.12762186.3450517.20324963l.17016248-.0141802c1.21949778-.9028065 2.42481536-1.55509602 3.62067947-1.95686854l.0141802.16070901c-.22215657.33087149-.37341211.50103397-.45376661.51048744.00945347.11344166.04726735.21270311.11816839.29778435.01890694.20324963-.52466766 1.57400295-1.62599705 4.10753323-2.50044313 5.88951251-4.59911374 10.24756281-6.30546529 13.06469721.00472674.0567208.03781389.1323486.09926145.2268833.42067947-.0992615.68537666-.2032496.79881832-.3025111l.08980797-.0094535.01418021.1607091.15598227-.0141803.16070901-.0898079c.00472674.0472673.05672083.070901.16543575.0614475l.01418021.160709c.0141802.1559823-.07562777.3923191-.2646972.7184639-.17016248.1937961-.35450517.6002954-.54830133 1.2194977l.00472674.0756278.15598227-.0141802c.68064993-.7610044 1.19586411-1.5078287 1.55036928-2.2357459 1.98522895-.5813885 3.49778434-1.1533235 4.54711965-1.7158051 1.05406203-.0898079 1.85760709-.3686853 2.40590842-.8271787l-.00945348-.0850812-.39704579.1181684-.08980797.0094534-.00945347-.0850812c.77518463-.1181684 1.30930579-.2883309 1.60709009-.5246677 1.5078287-1.1627769 2.6469719-1.9852289 3.4174298-2.4720827 1.5834565-1.1627769 2.6138848-2.2971935 3.0818317-3.3985229.0850812-.0189069.1701624-.0378139.2646972-.0614475.2221565-.0094535.3450516-.0141802.3781388-.0236337-.0094535-.0425406.0094535-.0661743.0519941-.0756278.3545052-.0378139.1843427.0236337.411226-.0283604l.5955687-.1370753c-.0378139.0094534-.0519941.0283604-.0425406.0661743l.0898079-.0567209c-.0189069 0-.0330871-.0047267-.0472673-.0094534l.0992614-.0236337-.0472673.0283604c.0661743.0094535.1370753.0047267.2174298-.0141802l.0425406.1748892-2.7084195 4.3060561-.6002954.751551-.2930576.983161.0567208-.0141802.2930576-.1228951-.0945347.3828656.0283604.1134416.0803545.0992615c-.0378138.0094534-.0519941.0330871-.0425406.0756277l.0141802.0614476.1228951-.0283604c.179616-.1559823.2552438-.2977844.2268834-.4254062.1937961.0330871.321418.0472673.3875923.0283604l.0141802.0614476c-.1181684.0283604-.179616.1228951-.1890694.2836041l.0141802.0614476.0661743-.0141803c.983161-1.0729689 3.3937961-4.7456425 5.327031-7.2366322-.0614476-.2694239.9453471-.642836 3.0251108-1.124963l.0661743-.0141802c.0756277.3261447-.0850813 1.1155096-.4821271 2.3680945-.2552437.7562777-.3781388 1.1722304-.3592319 1.2384047-.3308715 1.0067947-.4868537 1.5503693-.4679468 1.6354505l-.7373707 2.4153619c-.4774003 1.2384048-.841359 2.5382571-1.0966027 3.9090104.0425406-.0094535.1087149-.0047268.2032496.0189069l.1039882-.089808c.0094535.0425407.0378139.0567209.0803545.0472674l-.0425406-.1748892.321418-.0094535c.0945347-.0236337.1748892-.1418021.2410635-.3592319-.0141802-.3261448.0519941-.501034.1985229-.5388479.1985229-.7751846.321418-1.1627769.3639587-1.1769571.1843427-.7704579.321418-1.2100443.411226-1.3187592.2788774-1.002068.482127-1.5172822.6144756-1.5503693l.0283604.1228951-.2032496.5246677c-.3545052 1.5740029-.7137371 2.8171344-1.0776957 3.7293943l.1039881.4537667.0661743-.0141803c.8791729-1.8906942 2.145938-5.6342688 3.7955687-11.2307237.0472674-.4915805.2836042-.8744461.7042836-1.14387l-.0945347-.0992615-.0141802-.0519941c.1890694-.0425406.321418-.1181684.3970458-.2221566-.0094535-.0425406-.1748892-.1039881-.4963072-.1890694l.822452-3.52614474c.1796159-.16070901.2836041-.24579025.3166912-.24579025l.0141802.17961595c-.0425406.00472674-.1087149.02836042-.1843426.08035451l.1559822.22215657c.2836042-.30723781.590842-.57193501.9264402-.79409158.1701625.04726736.2552437.10398818.2646972.16070901l.1228951-.00945347c.9358937-.68537666 1.8528804-1.17695716 2.7556869-1.47474151l.0094535.11816839c-.1654358.25051699-.2788774.37813885-.340325.38286559.0094535.08508124.0330871.16070901.0756278.22688331.0141802.15598227-.3923191 1.1958641-1.2242246 3.12437223-1.9001477 4.46676509-3.4930576 7.77075329-4.7881831 9.91669129.0047267.0425406.0330871.0992614.0850812.1748892.3166913-.0756278.5199409-.1559823.6002954-.23161l.0567209-.0047268.0094534.1181684.1323486-.0094535.1181684-.0614475c.0047268.0330871.0472674.0472673.1276219.0425406l.0094535.1276219c.0094534.1134416-.0567209.2930576-.2032497.5388478-.1370753.1465288-.2788774.4537666-.4301329.9217135l.0047267.0614475.1228951-.0094534c.5152142-.5766618.9075333-1.1438701 1.1769572-1.7016249 1.5078287-.4443131 2.6564254-.874446 3.450517-1.2998522.8082718-.0709011 1.4180207-.2788774 1.8339734-.6286559l-.0047267-.0614475-.3072378.0898079-.0661743.0047268-.0047268-.0614476c.5861152-.0850812.9973412-.2174298 1.2194978-.3923191 1.14387-.8791728 2.0088626-1.5078286 2.5949779-1.876514 1.8245199-1.3282127 2.6753323-2.6044313 2.5713441-3.8286558zm-.3119645.0803545.0425406.4774003c-.0567208.1181684-.1181684.1796159-.1748892.1843427l-.0709011-.8129986c.1323486.0472674.1985229.0945348.2032497.1512556zm-35.79084198-3.84756279-.0803545.00472674-.01418021-.14652881.32614476-.02836041.00472673.07562777c-.05199409.00472673-.13234859.03308715-.23633678.09453471zm-1.59290989 15.93382569c-.18906943-.0850812-.35923191-.1181684-.50576071-.1039882l-.01890695-.23161c-.00945347-.089808.04254062-.1512556.15598228-.1748892.10398818-.0094535.16543574.0661743.17488922.2174298.27415066-.3355982.4254062-.5057607.45376661-.5104874l.17488922.070901c-.05672083.4726736-.20324963.7137371-.43485967.732644zm17.02097487-17.80561299c-.0803545.00945347-.2410635-.24106351-.4726735-.73737075l-.0141803-.1465288c.1512556-.01418021.3072379.23161004.4726736.73737075zm-.2268833-1.76307237-.0661743.15598227-2.3113737-.96425406c1.5409158.05199409 2.3350074.32141802 2.377548.80827179zm-9.760709 8.38050226-.32614476.0283604-.01418021-.1465288.32614476-.0283605zm-.2646972-5.03397346.08035451-.00472674.01890694.23161005c-.07562777.00472673-.17488922.11816839-.29778434.33559823l-.01418021-.16070902c.1465288-.17488921.22215657-.30723781.2127031-.40177252zm-.68537666 1.61654357.02836041.30723782-.0803545.00472673-.02836041-.30723781zm-.3592319.57666175.15598227-.01418021c-.01418021.25524372-.08508124.39231905-.2127031.40177253l-.08035451.00472673c.09926145-.17016248.14652881-.30251108.13707534-.39231905zm-.26942393.80354505.08980797-.00945347.00472674.07562777-.14652881.24579025-.15598227.0141802-.00472674-.07562777c.15598228-.0141802.22688331-.09453471.21270311-.25051698zm-.2646972.72319054-.04726735.38759235-.08035451.0047267-.03308715-.3828656zm-2.65169867 7.53914325c-.10398818.5293944-.21742984.7988183-.33559823.8082718l-.00472673-.0756277c-.02836041-.2599705.08508124-.5057608.34032496-.7326441zm-.48685376 1.0540621.00472673.0756277c.00945347.1039882-.03781388.1654358-.14180207.1701625l-.00472673-.0756277c-.00945347-.089808.03781388-.1465288.14180207-.1701625zm-.14180207 2.1884786.24579025-.0236337.00945347.0850812c-.06144756.0047268-.14180207.0378139-.24106352.0945347l-.15598227.0141802c-.00945347-.0803545.04254062-.141802.14180207-.1701624zm6.99556869-2.1601182c-1.3802068.6806499-2.19320532 1.14387-2.43426884 1.3849335-1.49364845.5199409-2.23574594.841359-2.22156573.9689808-1.3282127.5246677-2.20265879.91226-2.62333826 1.1533235-.09926145.0094535-.24106351-.0283604-.43013294-.1134417-.02363368-.2694239.09926145-.4868537.35923191-.6617429.23161004-.018907.45376661.0141802.66646972.1039881.24579025-.1276218.67592319-.2694239 1.28567208-.4206794l-.01418021-.160709-.4915805.0425406c.06144756-.0850813.53412112-.3072378 1.42274742-.6664697l.24579025-.0236337.00472673.0756278c-.42067947.0378138-.65228951.160709-.7042836.3828655.00945347.0992615.0661743.1418021.17016248.1323486.31669128-.1985229.47267356-.3166912.46794682-.3497784.60029542-.1134416 2.25937962-.983161 4.97725257-2.6044313l.0142511.1465288c.0046559.070901-.2269542.2694239-.694901.6097489zm-4.1689808 1.3707533c.39704579-.0330871.73737075-.1937962 1.02097488-.4726736.11344166-.0094534.17488922.0330872.17961596.1323486-.19379616.018907-.56720827.179616-1.11078287.4915805l-.0803545.0047268zm6.7261448-5.166322-2.0844904 1.6496307c-1.55036932 1.0162482-2.38227479 1.5267356-2.50044318 1.5361891-2.46735598 1.3565731-4.00354505 2.0608567-4.59911374 2.1128508l-.08980797.0094535c.07562777-.2788774 1.17223043-2.5240768 3.29926145-6.7497785.93589364-.0803545 2.41063515-.5152141 4.41949774-1.3093057l.4915805-.0425406c1.0162482-.089808 1.7772526.1087149 2.2782866.5813884l.0283604.3072379c-.3781388 1.0871491-.7940916 1.7205317-1.2431314 1.9048744zm-4.07444613-2.2924668.33559822-.0283604.00472674.0756278-.33559823.0283604zm4.71255543-.7988183.2457902-.0236337c.2268833.108715.3450517.2032497.3545052.2883309l.0047267.0756278c-.2174298.0189069-.4206795-.0945347-.6050221-.340325zm.6664697-3.79556867c-.2174299.25997046-.8129985.70428361-1.7867061 1.32821271-.321418.02836041-1.5172821.4915805-3.5875923 1.39911376-.10398818-.0472674-.2127031-.0661743-.33087149-.0567209l-.01418021-.1465288c-.02363368-.2977843.10871492-.67119641.40177253-1.12496303.16070901-.85081241.33559823-1.33766617.52939439-1.45583456l1.72525848-3.88064993c-.0189069-.24106352.3497784-.4254062 1.1060561-.55302806l.2457903-.02363368.0189069.22215657c.7420975-.11344165 1.2053176-.17961595 1.3849336-.19379616 1.3707533-.11816839 2.0844904.16070901 2.1412112.82717873l.1559823-.01418021-.0330872-.39231905.1701625-.01418021c.4017725.22215658.6192024.4915805.6475628.80827179.0189069.21742984-.0992615.48685377-.3497785.80827179-.1039881.00945347-.1654357-.0661743-.1748892-.21742984l-.1701625.01418021-.0378138.47267356c-.6948302 1.03988183-1.2005909 1.57400295-1.5125554 1.60236336-.2836042.39231906-.4584934.58611522-.5293944.59084195zm1.0587888 2.71787297c-.1418021-.0945347-.2552438-.1370753-.340325-.1323486l-.018907-.23161.1559823-.0141802.3450517.2032496c.0141802.1087149-.0330871.1654357-.141802.1748892zm1.0966026 1.2998523c.1512555.0614476.2410635.1276219.2599705.1890694l-.0756278.018907.0047267.0047267c-.0141802 0-.0330871.0047267-.0472673.0094535l-.1134417.0898079zm.1039882.6522895-.0141802-.0614476.1985229-.0472673.0141802.0614475zm.4774003.5341211c.2032496-.0330871.3025111-.0472673.6806499-.1323486l.0141802.0614476-.7184638.1654357c.0094535-.0330871.018907-.0661743.0236337-.0945347zm.6995569.2977844c-.3025111.0283604-.2363368-.0094535-.7184639.0992614l-.0141802-.0614475.6002955-.1937962.2883308-.0661743.0283604.1134417c-.1276218.0283604-.0330871.0283604-.1843426.1087149zm.6381093-.1512556c-.0709011.018907-.1276219-.0141802-.160709-.0945347l.1843426-.0425406c.0803545-.0189069.1323486.0141802.1512556.0945347zm1.7299852-1.8623338-.0141802-.0614476.2977843-.070901.0283604.1134417zm1.8481536 11.334712c.018907-.0850813.0236337-.1465288.0141802-.1890695l.0661743-.0141802c.0803545-.0189069.1276219.0094535.1465288.0850813l.0141802.0614475zm1.2951256-10.8478582-.1323486-.0236337c-.2127031.0850812-.3923191.1465288-.5388479.1796159l-.1228951.0283605c-.0709011.0189069-.1276219-.0094535-.1559823-.0850813l.8649926-.1985229.2836042-.1323486.0945347.1087149c-.1370754.0283605-.2363368.0709011-.2930576.1228952zm.6664697-.2127031-.0141802-.0614476c.0425406-.0094535.0992614-.0425406.160709-.1039882l.6144756-.141802.0141802.0614475c-.3261447.0803545-.5861152.160709-.7751846.2457903zm.0945347-1.2431315c-.0425406.0094535-.0992615.0472674-.1701625.1039882-.0094535-.0425406-.0945347-.0425406-.2552437-.0047267-.0283604-.1181684.4254062-.2836042 1.3660266-.501034l.1323486-.0283604.0283604.1134416c-.661743.1937962-1.0304284.3025111-1.1013294.3166913zm1.6543575-1.78670605c-.0661743.75155096-.3308715 1.17695717-.7988184 1.28567208l-.0141802-.06144756-.4159527.16070903-.1843427.0425406c-.0945347.0236337-.1796159.0189069-.2552437-.0047267l-.0378139-.16543578c-.0141802-.06144756.5861152-.89335303 1.805613-2.49098966l.1418021.02363368c.0519941.21742984-.0283604.61920236-.2410635 1.21004431zm2.9258493-2.50516987-.0567208.00472674-.0094535-.11816839.2457902-.02363368.0047268.06144756c-.0425406.00945348-.1039882.03308715-.1843427.07562777zm-1.2053176 12.10516992c-.1418021-.0661743-.2694239-.0945348-.3781388-.0850813l-.0141802-.1796159c-.0047268-.0614476.0330871-.1039882.1134416-.1276219.0803545-.0094535.1276219.0472674.1370753.1701625.2032497-.2599705.3166913-.3923191.340325-.3923191l.1276219.0519941c-.0472674.3592319-.1559823.5483013-.3261448.5624816zm12.9228951-13.51846386c-.0614475.00472674-.1796159-.18434269-.3639586-.56720827l-.0094535-.11816839c.1181684-.00945347.2410635.17488922.3639587.55302806zm-.1701624-1.35184638-.0567209.12289513-1.7488921-.73264402c1.1675037.03781388 1.7725258.24106351 1.805613.60974889zm-7.4162482 6.36691285-.2457902.02363368-.0094535-.11816839.2457902-.01890694zm-.2032496-3.8239291.0661743-.00472673.0141802.17961595c-.0614476.00472673-.1370754.08980797-.2268833.25524372l-.0094535-.11816839c.1087149-.13707533.160709-.24106351.1559823-.31196455zm-.5036107 1.22895126.0222222.23161004-.0777778.00472674-.0222222-.23161005zm-.2904809.43958641.1228951-.00945347c-.0141802.19852289-.0661743.30251107-.1559823.31196455l-.0661743.00472673c.0709011-.1323486.1039882-.23633678.0992615-.30723781zm-.1985229.60502215.0567208-.00472673.0047268.06144756-.108715.18906943-.1228951.00945347-.0047267-.06144757c.1276218-.00945347.1843427-.07562777.1748892-.19379616zm-.1985229.54830133-.0425406.30251108-.0567208.00472674-.0236337-.29778435zm-2.0183161 5.73353024c-.0803545.3970458-.1654357.6002955-.2552437.6097489l-.0047268-.0519941c-.0141802-.1985229.0709011-.3875923.2599705-.5577548zm-.3734121.7988184.0047267.0519941c.0094535.0850812-.0283604.1323485-.1134416.1370753l-.0047268-.0614476c-.0047267-.0614475.0330872-.1039882.1134417-.1276218zm-.1039882 1.6638109.1890694-.0141802.0047268.0614475c-.0425407.0047268-.108715.0283605-.1843427.0709011l-.1228951.0094535c-.0047268-.0661743.0330871-.108715.1134416-.1276219zm5.3081241-1.6401773c-1.0398818.5152142-1.6590842.8649927-1.8528804 1.0446086-1.1344165.3970458-1.6968981.642836-1.6874446.7420975-1.0067947.4017725-1.6685376.6901034-1.9805022.8744461-.0756278.0047267-.1843427-.0236337-.3261448-.089808-.0189069-.2032496.0756278-.3686854.2741507-.4915805.179616-.0141802.3497784.0094535.5057607.0756278.1890694-.0945347.5152142-.1985229.9784343-.3166913l-.0094535-.1181684-.3875923.0283604c.0472674-.0661743.411226-.2363368 1.0871492-.5104874l.1890694-.0141802.0047267.051994c-.321418.0283605-.5010339.1228952-.5388478.2930577.0047267.0756277.0519941.1134416.1323486.1039881.2363368-.1559822.3497784-.2457902.3497784-.2741506.4537666-.0803545 1.7110783-.7420975 3.7766618-1.9805022l.0094534.1181683c.0047268.0519941-.1701624.2032497-.5246676.4632201zm-3.1669129 1.0398819c.3072378-.0283604.5672083-.1465288.7846381-.3545052.0803545-.0094535.1276219.0283604.1323486.1039882-.141802.0141802-.4206794.1323486-.8413589.3592319l-.0661743.0047267zm5.1143279-3.9279173-1.5740029 1.2667651c-1.1769572.7704579-1.8150665 1.1580502-1.9143279 1.1675037-1.8717873 1.0304284-3.0345643 1.5645495-3.4930576 1.6023634l-.0661743.0047267c.0567208-.2127031.893353-1.9190546 2.5098966-5.1237814.7042836-.0614475 1.8197932-.3970458 3.3512555-1.0020679l.3828656-.0330872c.7704579-.0661743 1.3471196.0850813 1.7252585.4490399l.0189069.2316101c-.2883308.8129985-.6002954 1.2903988-.9406204 1.4369276zm-3.091285-1.7352946.2457902-.0277778.0047268.0722222-.2457903.0277778zm3.5781388-.613893.1890694-.0141802c.1748893.0850812.2646972.160709.269424.2221566l.0047267.0519941c-.1654357.0141802-.321418-.0709011-.4632201-.2599705zm.4963073-2.87858198c-.1654358.19852289-.6144757.53884785-1.3471197 1.01152141-.2457902.02363368-1.1533235.37341212-2.7225997 1.05406204-.0756278-.02836041-.160709-.03781388-.250517-.03308715l-.0094535-.11816839c-.0189069-.22688331.0803546-.51048744.2977844-.85553914.1228951-.65228951.2599704-1.01624815.4017725-1.10132939l1.3187592-2.94948302c-.0141802-.17488921.2646972-.31669128.8319055-.4254062l.1890694-.01418021.0141802.17961595c.5577548-.08980797.9075333-.14180206 1.0493353-.15598227 1.0398819-.08980798 1.5834565.11816839 1.6259971.62865583l.1228951-.00945347-.0236337-.28360413.1228952-.00945347c.302511.16543574.4632201.36395864.482127.60029542.0141802.17016248-.070901.37813884-.250517.61920236-.0803545.00945347-.1276219-.04726736-.1370753-.17016248l-.1228952.00945347-.0378138.35450517c-.5246677.79881832-.9075333 1.21004431-1.1485968 1.22895126-.2127031.28833087-.3450517.43485967-.4064992.43958641zm.553028 1.966322-.0141802-.17961595.1228951-.00945347.2646972.16070901c.0047268.07562777-.0330871.11816839-.1134416.12762186-.1134417-.07090103-.1985229-.10398818-.2599705-.09926145zm-22.0029542 11.48124078-.1228951.0283604-.1039882.089808c.0189069.0756278.0661743.1039882.1465288.0850812.0803545-.0189069.1134417-.0661743.0945347-.141802zm-.4679468-.9311669.0141802.0614475c.0803545-.0189069.1134416-.0661743.0945347-.141802l-.0141802-.0614476c-.0756278.018907-.1087149.0661743-.0945347.1418021zm3.3276218-7.9172821.1418021-.0330872-.0283604-.1228951-.1418021.0330871zm42.8903989 3.6017725c-1.4369277.321418-1.6165436.2646972-1.9190547.2883309l.0094535.1181683.1323486-.0094534.070901-.0047268-.0189069-.0141802.1559822-.0614475c1.4227475-.1559823 1.5881832-.0992615 1.574003-.2599705zm-7.7271197 1.0257016.02.1181684h.04l-.02-.1181684zm-.8991728-3.1149188-.1276219-.0425406c-.1039881.2788774-.1559822.4443132-.1512555.4915805l.0047267.0519941c.0992615-.0047267.1890695-.1748892.2741507-.501034zm8.9193501 2.0655835.0094534.1181684.2079764.0378139-.0094535-.1181684zm-9.779616 1.1958641-.321418-.0378139-.0567208.1228951.0047267.0614476 1.9143279-.160709-.0094534-.1181684zm-.8697193-4.1926145-.0047268-.0614475-.0661743.0047267-.1181684.0756278.0661743.1134416c.089808-.0094534.1323486-.0519941.1228952-.1323486zm11.5568685 2.1270311.089808-.0094535c.0519941-.0047268.0756278-.0472674.070901-.1228951l-.0519941-.1134417c-.3261447.0283604-.4774003.0425406-.7420975.1890694l-.0047267-.0614475-.3923191.0378138c-.0094534-.1181683-.0425406-.1796159-.0945347-.1748892l-.2032496.018907c-.2363368.0189069-.3497784.0094534-.4679468.0992614-.0047268-.0425406-.018907-.0614475-.0425406-.0614475l-.2268834.0189069-.1323485.0756278c-.0047268-.0425407-.018907-.0614476-.0425407-.0614476l-.0803545.070901-.0047267-.0614475-.3166913-.0236337-.0756278.0047267.0094535.1181684.160709.0425406.1512556-.0094534c.051994.0330871.1087149.0425406.1748892.0378139l.1323486-.0661743.0047267.0519941c-.7420975.1843426-.7373707.1512555-1.2478582.2363367-.0567208-.0378139-.0992614-.0567208-.1276219-.0519941l-.0094534.0094535c-.0567209-.0047267-.089808-.0425406-.0945347-.1039882l.2646972-.0330871c.0189069 0 .0330871.0189069.1796159.0472673.2127031-.1039881.2221566-.1465288.3355982-.1559822l-.0094534-.1181684c-.7279173.141802-.4348597.0472673-1.3471197.1276218l-.0425406.0047268-.0094535-.1181684c1.1722305-.1418021.7799114-.0614476 1.1816839-.1748892.0047268.0425406.018907.0614475.0425406.0614475.0472674-.0472673.0992615-.070901.1607091-.0803545l.0803545-.0047267c.411226-.0330872.5483013.0472673 1.3612998-.179616l.0047268.0519941.1323486-.0661743.1228951-.0094534c-.0094535-.1181684.1701625-.1370754.23161-.1418021l-.0094535-.1276219c-1.4274741.2883309-1.8008862.2079764-2.197932.321418l-.0047267-.051994c-.3734122.0661742-.3875924.0378138-.4821271.0425406-.0283604.0047267-.070901.0283604-.1181684.0756277-.0047267-.0425406-.0189069-.0614475-.0472673-.0614475-.0141802 0-.018907.0047267-.0236337.0047267l-1.2100443.1985229c-.0047267-.0330871-.018907-.0519941-.0472674-.0472673-.6286558.1323485-.4584933.1559822-1.2998523.23161-.0378138.0047267-.0898079.0236337-.1559822.0661743-.0047268-.0330872-.0236337-.0519941-.0661743-.0472674l-.5152142.0425407-.3450517.0850812c-.0047267-.0330871-.0236337-.0519941-.0661743-.0472674-.1937962.0519941-.3639586.0850813-.501034.0945348h-.0094534c-.0850813.0094534.0425406-.0236337-.0236337-.0519941l-.1039882.0614475c-.1512555.0141802-.070901-.0094534-.590842-.0047267-.9122599.1134416-.8129985.1276219-.9122599.1323486l-.340325-.0236337c.0047267.0330872-.0141802.0567208-.0519941.0567208-.3875923-.0519941-.5861152-.1134416-.5908419-.1843427.0519941-.3686853.141802-.5577548.2694239-.5672082l.0661743-.0047268-.0567208.1228952.0661743-.0047268c.1228951-.0661743.1796159-.1276218.1748892-.1843427l-.0094535-.1276218-.1228951.0094535-.0094535-.1181684c-.0094535-.089808.0047267-.1701625.0378139-.2363368l.2788774-.4490399.0094535.1181684.1323486-.0094535-.0094535-.1181684-.0756278-.1087149c.0992615-.0850812.1748892-.1323486.2363368-.1370753l-.0047267-.0614476-.179616.0141802-.0141802-.1796159c.3592319-.7468243.5293944-1.1816839.5199409-1.3045791l.1276219.0519941c.0803545-.0047267.1181684-.0519941.1134416-.1370753l-.1228951.0094535-.0047267-.0519941c-.0094535-.089808.0094535-.1748892.0472673-.250517.1937962-.2032496.2836042-.4064993.2646972-.6192024.0378139-.0047267.0567209.0141802.0614476.0567209.1654357-.0945348.2930576-.34505174.3875923-.76100447.2930576-.52939439.7090104-1.58818316 1.2525849-3.17163959 1.0398819-2.79822747.9973413-3.09601181 1.1438701-3.7577548l-.1228952.00945347c.0094535.08508125-.0094534.16543575-.0472673.24106352-.0850813-.03308715-.1512556-.05199409-.1985229-.04726736l-.0047268-.05199409c-.0189069-.24106351.0803546-.52939438.3072379-.86971935l.0567208-.00472673.1039882.40649926.1228951-.00945347c-.0047267-.02836042.0283604-.18906943.0945347-.48685377-.0047267-.06144756-.0519941-.09926145-.1465288-.10398818l-.1181684.07562777c-.0094535-.08508124-.0047267-.30723782.0094535-.66174299l-.0614476.00472674c-.1039882-.10398818-.1559823-.18906942-.160709-.25997046l-.6759232.0661743c-.0047267-.04726736-.0283604-.11816839-.0756277-.20797637-.0047268-.06144756.1465288-.12289512.4584933-.18434268l.1370753.05199409.1276219-.07562777c.0047267.04254062.0283604.06144756.0756278.05672082l.1276218-.07562777c.0047268.04254063.0283604.06144757.0756278.05672083l.0614476-.00472673-.0094535-.13707534c-.0945347.00945348-.3450517.00945348-.7420975-.00472673l-.1276219.08508124-.0047267-.07562777c-3.1716396.25997046-4.9725258.40649926-5.4026588.44903988-.0567208.00472674-.2788774 0-.6711964-.00945347.0047267.05199409-.0425407.08035451-.1370754.08980798l-.1370753-.06144757-.4632201.11816839c-.1087149.00945347-.2930576.00472674-.5483013-.02363367-.0709011.05672082-.1559823.08980797-.2599705.09926144-.0567208.00472674.6759232-.03781388 1.3565731-.08508124-.070901.05672083-.1796159.08980798-.3308715.10398819-.1039881.00945347-.1937961-.00472674-.2694239-.04726736-.1039882.04726736-.4395864.12289512-1.0020679.23633678l-.1370754-.05199409-2.2121122.34032496c-.0850813-.04254062-.1843427-.05672083-.2977844-.04726736-.1181684.00945348-.3166912.0519941-.5908419.12762187l-1.0682423.44431314.0803545.1323486c.0519941-.00472674.1276219-.03308715.2174299-.08508124l.3781388.03308715-.0472673.35450517c-.3497785.15598227-.5530281.38759232-.6097489.68064992-.5246677.23161005-.7846381.39704579-.7846381.49630724l.0047267.06144756.0803545-.00472673.1418021-.07562777.1654357.19852289.0236337.27415067c.0094535.08508124-.8744461 1.94268833-2.6422452 5.57282127-1.5314623 3.49778438-2.3350074 5.41211228-2.4106351 5.75716398-.5246677.1465288-.8271788.3592319-.9169868.642836.0094535.089808.1654358.1512556.4679469.1748892l.0141802.1370754-.1370754.2268833.0236337.2741506c.0141802.1418021.3970458.250517 1.1485968.3261448-.0047268-.0472674.0189069-.0756278.070901-.0803545.0141802.1701625-.0330871.501034-.1418021.9926145l.0803545-.0047268c.3119646-.4254062.4584934-.7184638.4443132-.8791728l.0661743-.0047267c.0756278-.0047268.1559823.0803545.250517.2646972-.0945347.0378139-.4254062.7893648-.9926145 2.2593796l.0803545.1323486.0803545-.0047268c.6948301-1.7583456 1.1296898-2.7320531 1.3093058-2.9163958.9122599-.0803545 2.4909896-.2410635 4.7314623-.482127l.1418021-.0850813c.0047267.0472674.0330871.070901.0850812.0661743l.1465288-.0141802.1418021-.0850812c.0047267.0472673.0330871.070901.0850812.0661743l1.6968981-.1465288c.4490399-.0378139.661743-.1748893.642836-.4064993-.0047267-.0614476.2599705-.1323486.7940916-.2079764.0519941-.0047267.1276219.0094535.2316101.0425406-.0047268-.0425406.2646972-.0850812.803545-.1323485.0141802-.2836042.1039882-.4348597.2646972-.4490399l-.0141802-.1370754c-.1512555.0141802-.321418.0519941-.5199409.1181684-.3545052-.0189069-.5813885-.0472673-.6759232-.0803545-.0945347.0519941-.1654357.0803545-.2174298.0850813l-1.1816839.0378138-.1418021.0756278c-.0047267-.0425406-.0330871-.0614475-.0850812-.0567208l-.0661743.0047267-.1512556.0756278c-.0047267-.0425406-.1276218-.0756278-.3734121-.1087149l-.1512555.089808-.2930576.0236336-.0047268-.0756277c1.5220089-.1654358 2.2735598-.3734122 2.2546529-.6192024.0992615-.0094535.1512555.0378139.160709.1370753l.4443132-.1134416-.0141802-.1370754-3.6443132.0992615c.0047267.0472673-.0189069.0756278-.070901.0803545l-.4443132-.0378139c-.1134416.0094535-.2079763.0425406-.2836041.0992615l-.1654358-.0614476c-.4584933.0378139-.7988183.0945347-1.0257016.1654357-.3119645-.0236336-.6570162-.0189069-1.0398818.0141802l-.8177253.0709011-.3781388-.0425406c-.018907-.2410636.4490399-1.4274742 1.4132939-3.5545052.2788774-.7184638.5341212-1.1675037.7799114-1.33766618.0519941-.00472674.1276219.01418018.23161.05672078l.5813885-.19852285.2977844.04726736c.5010339-.04254062 1.0824224-.18434269 1.7488921-.43013294.1654358-.01418021.2883309-.00472674.3781389.03308715l.4443131-.10398819 1.323486-.11344165c.5624815-.04726736 1.1722304-.17016248 1.8339734-.37341211l-.0141802-.13707534c-.2457902.02363368-.3734121-.01890694-.3828656-.11816839-.0141802-.18434268-.1937961-.25997045-.5388478-.23161004l-.0141802-.13707533.3639586-.10398819.9548006-.0803545-.0141802-.13707533c-.0378139.00472673-.2316101 0-.590842-.01418021l-.0141802-.1465288.3686854-.03308715c.0992615-.00945347.1418021-.05672083.1323486-.15125554-.4963072.01418021-.7468242-.00945347-.751551-.07562777-3.4599704.17016248-5.1946824.20324963-5.2041359.09453471-.051994.00472674-.1228951.03781389-.2174298.09453471l-.089808-.14180206c.9169867-1.94741507 1.4558346-2.93057608 1.6118169-2.94475628.0047267.07562777-.0330872.19852289-.1181684.36395864l.0047267.06144756.1465288-.01418021c.3639587-.86971935.6711965-1.31875923.9264402-1.33766617 1.0871492-.09453471-.1512555-.16543575 2.1742984-.52939439.0945347.04254062.160709.06144757.2079763.05672083.91226-.18434269 2.1837519-.37813885 3.8144757-.57666174l-.0094535-.13707533-.8697194.0803545-.0094534-.13707533c.1039882-.00945347.1890694-.04254062.2599704-.09926145l.0047268.07562777c.0472673-.00472674.1134416-.03781388.1985229-.09453471.1512555-.01418021.2646972 0 .3450517.04254062.302511-.08035451.5483013-.12762186.7279172-.14652881l.5435746-.05199409c.1323486-.08508124.1937962-.16070901.1890695-.23161004l-.0047268-.06144756c-.1370753.0141802-.2930576.00472673-.4774003-.02836042-.0047267-.07562777.0330872-.12762186.1228952-.15125554l1.0115214-.09453471.4632201-.11816839c.0047267.05199409.0283604.07090104.0661743.07090104.0472673-.00472674.1134416-.03781389.1985229-.09453472.0236336.00472674.051994.00472674.0756277.00945347-.0614475.12762187-.1323486.31196455-.2032496.55302807l-.1323486.00945347c-.0094535-.08980798-.0330871-.17016248-.0756278-.24106351l-.0661743.00472673c-1.2289512 3.42215657-1.7772526 5.01506647-2.9116691 7.64313146-.2079764.6711965-.3828656 1.0446086-.5341211 1.1249631.0047267.0756277.0519941.1134416.1323486.1039882.0283604.3308715-.0472674.6570162-.2316101.9784342-.5246676 1.5125554-.8744461 2.3397341-1.054062 2.4909897l.1181684.7137371c.0047267.0756277-.0330872.1181684-.1134417.1276218l-.1228951.0094535c-.0189069-.1985229-.089808-.2930576-.2174298-.2788774l-.0661743.0047267c-.160709.250517-.2836042.5388479-.3639587.8744461l.1228952-.0094535c.1654357-.1087149.2410635-.2363367.2268833-.3828655l.2457902-.0236337.1418021.0519941c-.1134417.1796159-.1654358.321418-.1559823.4301329l.0661743.1134417-.160709.3781388.0047267.0614476c.1418021-.0141802.2977844.0330871.4632201.1323486.1134417-.0094535.2363368-.0614476.3734121-.1512556.1418021-.0141802.6711965-.0189069 1.5834565-.0189069l.4584933-.1559823c.5577548-.0047267.6475628.0094535 1.1296898-.0330871l.1985229-.018907.1039882-.070901.0047267.0614476c.5057607-.0425407.5388479-.0094535.9358937.0378138l.0047267.0614476-.2788774.0236337.0094535.1181684c.0850812-.0094535.160709-.0330872.2221566-.0850813.070901-.0047267.1134416.0330872.1181683.1181684-.1134416.0094535-.2410635.0378139-.3828655.0850813l-.1228952-.0425407c-.1937961.0519941-.1512555.0661743-.2836041.0756278l-.1937962-.0378139c.0047268.0330872-.0141802.0567209-.0472673.0567209.0047267.0756277.0472673.1134416.1181684.1087149l.1985229-.018907 1.0351551-.0898079.392319-.0850813c.0047268.0330872.018907.0519941.0519941.0472674l.1890694-.0709011.3545052-.0283604c.2741507-.0236337.2694239-.0425406.8649926-.1370753-.0047267-.0378139.0094535-.0519941.0378139-.0567208l.0047267.0519941c.9689808-.1654358 1.0304284-.1748893 1.1864107-.2268834l.0141802.0283605c.2410635-.0567209.1039882-.0425407.1701625-.089808.0047267.0425406.0189069.0614475.0425406.0614475l.1701625-.0141802-.0094535-.1276218-.3450517-.0047268-.0047267-.0094534c-.0141802.0047267-.0236337.0047267-.0378139.0094534h-.0472674v.0094535c-.23161.0472674-.2363368.0141802-.3875923.0283604l-.8649926.0472674-.0047267-.0614476.482127-.0661743.1748892-.0141802.0992615-.070901.0047267.0614475c.6806499-.0567208.9217134.1134417 4.0697193-.5577548.1701625-.0141802.1559823-.1559822.2646972-.4490398-.0567208.0047267-.1134416-.0094535-.1654357-.0378139-.2599705.0992614-.3970458.0519941-.8980798.1323486-.0425406.0047267-.0756277-.0330872-.089808-.1087149l-.0047267-.0519941.482127.0141802c.089808-.0094535.2646972-.0236337.5246677-.1701625 0 .0425406-.0945347.0661743-.0378139.0614476zm-23.2744461.3734121-.2221566.0189069c-.0094534-.089808.108715-.4301329.3545052-1.0115214l.1465288-.0141802c.0047268.1370753-.0850812.4726735-.2788774 1.0067947zm.2694239-1.0776958-.0047267-.0614475c-.0047267-.0756278.0425406-.1276219.1465288-.1512556l.0047268.0614476c.0047267.089808-.0425407.1418021-.1465289.1512555zm2.9542098 2.2830133.0047267.065-.3686853.035-.0047268-.065zm-.4443131-.0378138c.0047267.0756277-.108715.160709-.3545052.2457902l-.4537666-.0330871-.1465288.0141802-.0141802-.1370754zm2.9872968-13.7500739-.2221565.01890694-.0047268-.07562777c-.0047267-.07562777.0378139-.12762186.1323486-.15125554l.0803545-.00472673.1512556.06144756c.0047267.08980798-.0378139.14180207-.1370754.15125554zm3.379616-.66174298.070901-.00472674.0094535.13707533-.2032496.01890695c-.0047268-.07562777.0330871-.12762187.1228951-.15125554zm-.8508124.29778434-.3355982-.03781389-.0047268-.06144756c.4395864-.03781388.5861152-.08508124.8555392-.16070901.0047267.05199409.0519941.07090104.1370753.06144756l.0094535.13707534-.1323486.0141802c-.1039882.00945347-.1937962-.00472673-.2694239-.04726735-.0803546.05199409-.1654358.08508124-.2599705.09453471zm.4206795 1.22422452-.0047268-.06144756.5435746-.05199409.0047268.06144756zm.5813884-.47193501-.0047267-.07619047.2646972-.02380953.0047267.07619048zm.0614476-.92717873-.070901.00472674.0614475-.14652881.6050222-.05672082.0047267.07562777c-.1559822.0141802-.3592319.05672082-.6002954.12289512zm.3072378 1.30457903-.0094535-.13707533.2646972-.02363368c.089808-.00945347.1370754.03308715.1418021.12762186zm1.6023634-2.18375185-.340325.09453471-.0614475.00472674c-.1607091.01418021-.3686854.00945347-.6144757-.01418021.4395864-.02836041.8602659-.06144756 1.0162482-.08508124zm-.3639587 1.51255539.0047268.06144757-.4679468.04254062-.0047268-.06144757zm.7657312.36395864c-.0047267-.05672082-.0945347-.09453471-.2788774-.11344165l-.4679468.1323486-.3592319.0141802c-.0803545-.05672082-.1228951-.09453471-.1276219-.12289512l.4159528.02363368.9358936-.15125554.4774003.01890694.0047267.07562777c-.2363367.02363368-.4348596.0661743-.6002954.12289512zm4.8165436-1.24313146c.0567208.00472674.0945347.00472674.1087149.00472674.1654358-.16070901.3497784-.28833087.5624815-.37813885-.1701624.74682422-.4348596 1.29985229-.7988183 1.65908419l-.2646972-.16070901c.2221566-.56248153.3545052-.93589364.3923191-1.12496307zm-.8129985 1.394387.0661743-.00472673c-.089808.17016248-.1701625.25997046-.2363368.26469719l-.0141802-.17961595c.0425406 0 .1039882-.02836042.1843427-.08035451zm-.5246677 1.25258494c.1276219-.51048745.250517-.79881832.3639587-.87444609l.0047267.06144756c-.0661743.47267356-.1701625.72319055-.3072378.74209749l.0236337.29778435c-.1134417.16070901-.1654358.28360413-.1607091.37813884l-.0661743.00472674-.0378138-.411226c.0756277-.00945347.1370753-.07562777.1796159-.19852289zm-.2032496.68064992c.0047267.07090104-.0425406.23633678-.1370754.4915805l-.0661742.00472674-.0141803-.17961595c.089808-.20797637.1654358-.31196455.2174299-.31669129zm-3.8144756 11.07001475-.0047268-.0519941.1228951-.0094534.0141803.1796159c-.0661743.0047267-.1134417-.0330871-.1323486-.1181684zm5.4499261.1418021c-.0047267-.0425406-.0236337-.0614476-.0661743-.0567208l-.3072378.0283604-.0047267-.0614476h.0283604l.7279172-.0614475.0047268.0614475c-.2127031.0094535-.340325.0425406-.3828656.089808zm-.33647-.1459823c.06.03.03.06 0 .08-.03-.01-.07-.04 0-.08zm.0103252-.8560857-.4064992.0330872-.0047268-.0614476.3686854-.0330871.321418-.0803545c.0047268.0378139.0236337.0519941.0661743.0472673.3828656-.0661743.3450517-.0850812.5293944-.0992614.0614476-.0047268.0992615.0330871.1039882.1087149zm1.4227475-.1228951c-.2268834-.0236337-.2410636-.0425406-.4017726-.0283604l-.0047267-.0519941.3639586-.0330871.0047268.0519941c-.0378139.0047267.0992614.0141802.0378139.0614475zm.0283604-.0370753-.0047268-.0733333.1985229-.0266667.0047268.0733333zm.4395864-.0669129-.0047268-.0519941c.0330872-.0047267.0803546-.0283604.1418021-.0756277.0992615-.0094535.1512556.0567208.160709.1323486zm.5624815-.0512555-.0047267-.0764706.2410635-.0235294.0047267.0764706zm.3355982-.0480059c-.0047267-.070901.0236337-.1134417.0850813-.1228951l.0803545.1039881c-.0047267-.0330871.0094535-.051994.0378139-.0567208l.0614475.1134417zm-3.5159527 1.5409158-.02-.1181684-.08.0047267.02.1181684zm8.2521418-2.1506647c.0378139-.0236337.0567208-.0472674-.0330871-.0614476-.0425407.0472674.0472673.0614476-.0472674.0661743l.0047267.0425407c.0094535-.0094535.0330872-.0236337.0519941-.0378139l-.0519941.0425406v.0047267l-.0992614.1276219.1985229-.070901h.0236337l-.0094535-.1181684zm.3450517.2694239-.0378139.0047268.0094535.1181684.2788774-.0236337c-.0047267-.0756278-.1890694-.0992615-.250517-.0992615zm-.4064032-.1763368.01-.01v-.01s-.01.01-.01.02z" fill="#000"/><path d="m45.1734121 5.42629247.0047267.07562777.1559823-.01418021c-.0047267-.04726736.0141802-.12289513.0472674-.21742984l-.0141802-.13707533c-.0661743.00472674-.1323486.10398818-.1937962.29305761zm-1.4936484-3.59231906-.0141802-.13707533-.2221566.01890694.0141802.13707533zm-4.3344166 8.11580502c-.0094535-.12762186-.4064992-.62392909-1.1911374-1.49837518-.0141802-.16070901.2552438-.40177253.8082718-.71846381l1.5787297-1.37548006c.3545052-.44903988.5624816-1.17695716.6239291-2.18847858l-.0189069-.23161005c-.0614476-.69955687-.5672083-1.2620384-1.5267356-1.69217134-.5672083-.38286558-1.5881832-.59556869-3.0629247-.63338257-1.2194978.10398818-2.8124077.53884786-4.7740029 1.30930576-.5388479.38759232-1.1533235.77518464-1.8434269 1.16277696l.0094535.11816839c.0425406-.00472674.1087149-.02836042.1843426-.08035451.0803545-.00945347.1276219.02836042.1323486.10398818l.1181684-.06144756.0567209-.00472673.0047267.05199409c.0047267.06144756-.4206795.39704579-1.2809454.99734121l.0661743.12289512-.0567208.00472674-.1418021-.05199409c.0047268.04254062-.0567208.07090103-.1748892.0803545l.0047268.0519941.1370753.17016248c-.0425406.00472673-.1087149-.01418021-.1985229-.04726736-.1985229.01890694-.3923191.12289513-.5861152.32141802l.0803545-.34977843c.2883309-1.24313146.4868538-2.34446086.5908419-3.29926145l-.0141802-.06144756c-.1985229-.12762186-.392319-.30723782-.571935-.53412113.0047268-.1465288.0047268-.23161004 0-.25051698l-.0141802-.05199409-.0567208.0141802c-.6239291.93589365-1.8245199 2.53353028-3.6064993 4.7929099-1.3565731 1.6070901-2.05613 2.50044313-2.0986706 2.68005908-.553028.57193501-.8177252.91698671-.7893648 1.0351551-.1465288.09453471-.2079764.18906942-.1843427.29305762-.0425406.0094535-.070901-.0047267-.0803545-.0472674-.2363368.3828656-.5861152.6286559-1.0540621.7373708l-.4915805.1134416c-.0661743.0141802-.0992614.0614476-.0945347.1418021l.0141802.0614476.1843427-.0425407.0141802.0519941-.4159527.1607091-.7373707.1701624-.3875924.0236337c-.0567208.0567208.3072378-.0047267.1654358.0283604l-.4821271.1134417c-.2930576.0661743-.4537666.0425406-.482127-.0756278l-.0567208.0141802c.0094535.0519941.0141802.089808.0047267.1228951l-.0283604-.1181683-.3875923.0898079c-.0283604-.1796159-.5530281-.8319054-1.5692762-1.95686851-.018907-.21742984.3403249-.53412112 1.072969-.94534712l2.0703101-1.81979321c.4632201-.59556868.7373708-1.55036927.8271788-2.86440177l-.0283604-.30723781c-.0803545-.92644018-.751551-1.6732644-2.0135894-2.24992615-.7468242-.50576071-2.0892171-.77518463-4.0271787-.81772525-1.6070901.13707533-3.70576074.70901034-6.28655838 1.70635155-.70901034.51521418-1.51728213 1.02570162-2.42481536 1.53146233l.01418021.16070901c.06144756-.00472674.14180206-.03781388.24106351-.09453471.10398818-.00945347.16070901.03781388.17016248.1323486l.16070901-.08980798.08035451-.00472674.00472673.07562777c.00472674.07562777-.5577548.51521418-1.69689808 1.31875923l.08980798.14180207-.0803545.00472674-.17488922-.06144756c.00472673.04726735-.07562777.0803545-.24106352.09453471l.00945347.08508124.18906943.20797636c-.06144756.00472674-.14652881-.0141802-.25524372-.05199409-.36868538.03308715-.72791729.29778435-1.08242246.79881832l.08980798.14180207c.30723781-.28360414.48685377-.42540621.53884786-.43013294l.01890694.23161004c-.05199409.00472674-.1323486.03781389-.24106351.09453471l.19379615.29305761c.37341212-.40177252.78463811-.74682422 1.233678-1.0351551.22215657.05672083.34032496.12762187.34505169.20324964l.17016249-.01418021c1.21949778-.9028065 2.42481536-1.55509601 3.62067946-1.95686854l.01418021.16070901c-.22215657.33087149-.37341211.50103397-.45376662.51048745.00945348.11344165.04726736.2127031.11816839.29778434.01890695.20324963-.52466765 1.57400295-1.62599704 4.10753323-2.50044313 5.88951256-4.59911374 10.24756276-6.30546529 13.06469716.00472674.0567209.03781388.1323486.09926145.2268833.42067947-.0992614.68537666-.2032496.79881831-.302511l.08980798-.0094535.01418021.160709.15598227-.0141802.16070901-.089808c.00472674.0472674.05672083.0709011.16543575.0614476l.0141802.160709c.01418021.1559823-.07562776.3923191-.26469719.7184638-.17016248.1937962-.35450517.6002954-.54830133 1.2194978l.00472674.0756278.15598227-.0141802c.68064993-.7610045 1.19586411-1.5078287 1.55036928-2.235746 1.98522895-.5813885 3.49778434-1.1533235 4.54711964-1.715805 1.05406204-.089808 1.85760709-.3686854 2.40590842-.8271787l-.00945347-.0850813-.39704579.1181684-.08980797.0094535-.00945348-.0850813c.77518464-.1181683 1.3093058-.2883308 1.6070901-.5246676 1.5078287-1.162777 2.6469719-1.985229 3.4174298-2.4720827 1.5834565-1.162777 2.6138848-2.2971935 3.0818317-3.3985229.0850812-.018907.1701624-.0378139.2646971-.0614476.2221566-.0094535.3450517-.0141802.3781389-.0236337-.0094535-.0425406.0094535-.0661743.0519941-.0756277.3545052-.0378139.1843427.0236336.411226-.0283604l.5955687-.1370754.0992614-.0236337-.0472673.0283605c.0661743.0094534.1370753.0047267.2174298-.0141802l.0425406.1748892-2.7084195 4.3060561-.6002954.751551-.2930576.983161.0567208-.0141802.2930576-.1228952-.0945347.3828656.0283604.1134417.0803545.0992614c-.0378138.0094535-.0519941.0330872-.0425406.0756278l.0141802.0614475.1228951-.0283604c.179616-.1559822.2552438-.2977843.2268834-.4254062.1937961.0330872.321418.0472674.3875923.0283604l.0141802.0614476c-.1181684.0283604-.179616.1228951-.1890694.2836041l.0141802.0614476.0661743-.0141802c.983161-1.072969 3.3937961-4.7456425 5.327031-7.2366322-.0614476-.2694239.9453471-.642836 3.0251108-1.1249631l.0661743-.0141802c.0756277.3261448-.0850813 1.1155096-.4821271 2.3680946-.2552437.7562777-.3781388 1.1722304-.3592319 1.2384047-.3308715 1.0067947-.4868537 1.5503693-.4679468 1.6354505l-.7373708 2.4153619c-.4774002 1.2384047-.8413589 2.538257-1.0966026 3.9090103.0425406-.0094534.1087149-.0047267.2032496.018907l.1039882-.089808c.0094535.0425406.0378139.0567208.0803545.0472674l-.0425406-.1748893.321418-.0094534c.0945347-.0236337.1748892-.1418021.2410635-.3592319-.0141802-.3261448.0519941-.501034.1985229-.5388479.1985229-.7751846.321418-1.162777.3639587-1.1769572.1843427-.7704579.321418-1.2100443.411226-1.3187592.2788774-1.0020679.482127-1.5172821.6144756-1.5503693l.0283604.1228952-.2032496.5246676c-.3545052 1.574003-.7137371 2.8171344-1.0776957 3.7293944l.1039881.4537666.0661743-.0141802c.8791729-1.8906942 2.145938-5.6342688 3.7955687-11.2307238.0472674-.4915805.2836042-.8744461.7042836-1.14387l-.0945347-.0992614-.0141802-.0519941c.1890694-.0425407.321418-.11816842.3970458-.22215661-.0094535-.04254062-.1748892-.10398818-.4963072-.18906942l.822452-3.52614476c.1796159-.16070901.2836041-.24579025.3166912-.24579025l.0141802.17961595c-.0425406.00472674-.1087149.02836042-.1843426.08035451l.1559822.22215657c.2836042-.30723781.590842-.571935.9264402-.79409158.1701625.04726736.2552437.10398819.2646972.16070901l.1228951-.00945347c.9358937-.68537666 1.8528804-1.17695716 2.7556869-1.4747415l.0094535.11816839c-.1654358.25051698-.2788774.37813884-.340325.38286558.0094535.08508124.0330871.16070901.0756278.22688331.0141802.15598227-.3923191 1.1958641-1.2242246 3.12437223-1.9001477 4.46676514-3.4930576 7.77075334-4.7881831 9.91669124.0047267.0425407.0330871.0992615.0850812.1748893.3166913-.0756278.5199409-.1559823.6002954-.2316101l.0567209-.0047267.0094534.1181684.1323486-.0094535.1181684-.0614476c.0047268.0330872.0472674.0472674.1276219.0425407l.0094535.1276218c.0094534.1134417-.0567209.2930576-.2032497.5388479-.1370753.1465288-.2788774.4537666-.4301329.9217134l.0047267.0614476.1228951-.0094535c.5152142-.5766617.9075333-1.14387 1.1769572-1.7016248 1.5078287-.4443132 2.6564254-.8744461 3.450517-1.2998523.8082718-.070901 1.4180207-.2788774 1.8339734-.6286558l-.0047267-.0614476-.3072378.089808-.0661743.0047267-.0047268-.0614475c.5861152-.0850813.9973412-.2174299 1.2194978-.3923191 1.14387-.8791728 2.0088626-1.5078287 2.5949779-1.876514 1.8245199-1.3282127 2.6753323-2.6044313 2.5713441-3.82865587zm-.3119645.08035447.0425406.4774003c-.0567208.1181684-.1181684.179616-.1748892.1843427l-.0709011-.8129985c.1323486.04726736.1985229.09453471.2032497.1512555zm-35.79084198-3.84756274-.0803545.00472674-.01418021-.14652881.32614475-.02836041.00472674.07562777c-.05199409.00472674-.1323486.03308715-.23633678.09453471zm-1.5929099 15.93382574c-.18906942-.0850813-.3592319-.1181684-.50576071-.1039882l-.01890694-.2316101c-.00945347-.0898079.04254062-.1512555.15598228-.1748892.10398818-.0094535.16543574.0661743.17488921.2174299.27415067-.3355983.42540621-.5057608.45376662-.5104875l.17488922.070901c-.05672083.4726736-.20324963.7137371-.43485968.7326441zm17.02097488-17.80561303c-.0803545.00945347-.2410635-.24106352-.4726735-.73737076l-.0141803-.1465288c.1512556-.01418021.3072379.23161004.4726736.73737075zm-.2268833-1.76307238-.0661743.15598227-2.3113737-.96425406c1.5409158.05199409 2.3350074.32141802 2.377548.80827179zm-9.76070901 8.38050221-.32614475.0283604-.01418021-.1465288.32614476-.0283604zm-.26469719-5.03397341.08035451-.00472673.01890694.23161004c-.07562777.00472674-.17488922.11816839-.29778434.33559823l-.01418021-.16070901c.1465288-.17488922.22215657-.30723782.2127031-.40177253zm-.68537666 1.61654358.02836041.30723781-.0803545.00472674-.02836042-.30723782zm-.35923191.57666174.15598228-.01418021c-.01418021.25524372-.08508124.39231906-.2127031.40177253l-.08035451.00472673c.09926145-.17016248.1465288-.30251108.13707533-.39231905zm-.26942393.80354505.08980798-.00945347.00472674.07562777-.14652881.24579025-.15598227.01418021-.00472674-.07562777c.15598228-.01418021.22688331-.09453471.2127031-.25051699zm-.26469719.72319055-.04726736.38759229-.0803545.0047268-.03308715-.38286562zm-2.65169867 7.53914329c-.10398818.5293944-.21742984.7988183-.33559823.8082718l-.00472673-.0756278c-.02836042-.2599705.08508124-.5057607.34032496-.732644zm-.48685377 1.054062.00472674.0756278c.00945347.1039882-.03781389.1654357-.14180207.1701625l-.00472673-.0756278c-.00945348-.089808.03781388-.1465288.14180206-.1701625zm-.14180206 2.1884786.24579025-.0236337.00945347.0850813c-.06144757.0047267-.14180207.0378139-.24106352.0945347l-.15598227.0141802c-.00945347-.0803545.04254062-.1418021.14180207-.1701625zm6.99556869-2.1601182c-1.3802068.68065-2.19320533 1.1438701-2.43426884 1.3849336-1.49364845.5199409-2.23574594.8413589-2.22156573.9689808-1.32821271.5246676-2.20265879.9122599-2.62333826 1.1533235-.09926145.0094534-.24106352-.0283605-.43013294-.1134417-.02363368-.2694239.09926145-.4868538.35923191-.661743.23161004-.0189069.45376661.0141802.66646971.1039882.24579026-.1276219.6759232-.2694239 1.28567209-.4206795l-.01418021-.160709-.4915805.0425406c.06144756-.0850812.53412112-.3072378 1.42274741-.6664697l.24579025-.0236337.00472674.0756278c-.42067947.0378139-.65228951.160709-.7042836.3828656.00945347.0992614.06617429.1418021.17016248.1323486.31669128-.1985229.47267356-.3166913.46794682-.3497784.60029542-.1134417 2.25937962-.983161 4.97725257-2.6044314l.0142511.1465288c.0046559.0709011-.2269542.269424-.694901.6097489zm-4.16898081 1.3707534c.39704579-.0330872.73737076-.1937962 1.02097489-.4726736.11344166-.0094535.17488922.0330872.17961596.1323486-.19379616.0189069-.56720828.179616-1.11078287.4915805l-.08035451.0047267zm6.72614471-5.166322-2.0844903 1.6543574c-1.55036933 1.0162482-2.38227479 1.5267356-2.50516992 1.5361891-2.46735598 1.3565731-4.00354505 2.0608567-4.59911373 2.1128508l-.08980798.0094535c.07562777-.2788774 1.17223043-2.5240768 3.29926145-6.7497785.93589365-.0803545 2.41063515-.5152141 4.41949778-1.3093057l.4915805-.0425407c1.0162482-.0898079 1.7772526.108715 2.2782866.5813885l.0283604.3072378c-.3734121 1.0824225-.7893649 1.7158051-1.2384048 1.9001478zm-4.07444604-2.2924668.33559823-.0283604.00472674.0756277-.33559823.0283605zm4.71255544-.7988183.2457902-.0236337c.2268833.1087149.3450517.2032496.3545052.2883309l.0047267.0756277c-.2174298.018907-.4206795-.0945347-.6050221-.3403249zm.6664697-3.79556871c-.2174299.25997045-.8129985.7042836-1.7867061 1.3282127-.321418.02836041-1.5172821.4915805-3.5875923 1.39911371-.10398818-.0472673-.2127031-.0661743-.33087149-.0567208l-.01418021-.1465288c-.02363368-.29778435.10871492-.67119646.40177253-1.12496308.16070901-.8508124.33559822-1.33766617.52939438-1.45583456l1.72525849-3.88064993c-.0189069-.24106351.3497784-.4254062 1.1060561-.55302806l.2457903-.02363368.0189069.22215657c.7420975-.11344165 1.2053176-.17961595 1.3849336-.19379616 1.3707533-.11816839 2.0844904.16070901 2.1412112.82717873l.1559823-.0141802-.0330872-.39231906.1701625-.01418021c.4017725.22215658.6192024.49158051.6475628.80827179.0189069.21742984-.0992615.48685377-.3497785.80827179-.1039881.00945347-.1654357-.0661743-.1748892-.21742984l-.1701625.01418021-.0378138.47267356c-.6948302 1.03988183-1.2005909 1.57400295-1.5125554 1.60236337-.2836042.39231905-.4584934.58611521-.5293944.59084195zm1.0587887 2.71787301c-.141802-.0945348-.2552437-.1370754-.3403249-.1323486l-.018907-.23161009.1559823-.0141802.3450517.20324959c.0141802.108715-.0330871.1654358-.1418021.1748893zm1.0966027 1.2998522c.1512555.0614476.2410635.1276219.2599705.1890695l-.0756278.0189069.0047267.0047267c-.0141802 0-.0330871.0047268-.0472673.0094535l-.1134417.089808zm.1039882.6522896-.0141802-.0614476.1985229-.0472674.0141802.0614476zm.4774003.5341211c.2032496-.0330872.3025111-.0472674.6806499-.1323486l.0141802.0614475-.7184638.1654358c.0094535-.0330872.018907-.0661743.0236337-.0945347zm.6995569.2977843c-.3025111.0283604-.2363368-.0094534-.7184639.0992615l-.0141802-.0614476.6050222-.1937962.2883309-.0661743.0283604.1134417c-.1323486.0283604-.0378139.0283604-.1890694.1087149zm.6381093-.1512555c-.0709011.0189069-.1276219-.0141802-.1607091-.0945347l.1843427-.0425406c.0803545-.018907.1323486.0141802.1512556.0945347zm1.7299852-1.8623338-.0141802-.0614476.2977843-.070901.0283604.1134416zm1.8481536 11.3347119c.018907-.0850812.0236337-.1465288.0141802-.1890694l.0661743-.0141802c.0803545-.018907.1276219.0094535.1465288.0850812l.0141802.0614476zm1.2951256-10.8478582-.1323486-.0236337c-.2127031.0850813-.3923191.1465288-.5388479.179616l-.1228951.0283604c-.0709011.018907-.1276219-.0094535-.1559823-.0850812l.8649926-.1985229.2836042-.1323486.0945347.1087149c-.1370754.0283604-.2363368.070901-.2930576.1228951zm.6664697-.2127031-.0141802-.0614475c.0425406-.0094535.0992614-.0425407.160709-.1039882l.6144756-.1418021.0141802.0614476c-.3261447.0803545-.5861152.160709-.7751846.2457902zm.0945347-1.2431314c-.0425406.0094534-.0992615.0472673-.1701625.1039881-.0094535-.0425406-.0945347-.0425406-.2552437-.0047267-.0283604-.1181684.4254062-.28360413 1.3660266-.50103397l.1323486-.02836041.0283604.11344165c-.661743.19379616-1.0304284.30251113-1.1013294.31669133zm1.6543575-1.7867061c-.0661743.75155096-.3308715 1.17695717-.7988184 1.28567209l-.0141802-.06144757-.4159527.16070901-.1843427.04254062c-.0945347.02363368-.1796159.01890695-.2552437-.00472673l-.0378139-.16543575c-.0141802-.06144756.5861152-.89335303 1.805613-2.49098966l.1418021.02363368c.0519941.21742984-.0283604.61920236-.2410635 1.21004431zm2.9258493-2.50516986-.0567208.00472673-.0094535-.11816839.2457902-.02363368.0047268.06144757c-.0425406.00945347-.1039882.03308715-.1843427.07562777zm-1.2053176 12.10516986c-.1418021-.0661743-.2694239-.0945347-.3781388-.0850812l-.0141802-.179616c-.0047268-.0614476.0330871-.1039882.1134416-.1276219.0803545-.0094534.1276219.0472674.1370753.1701625.2032497-.2599704.3166913-.392319.340325-.392319l.1276219.0519941c-.0472674.3592319-.1559823.5483013-.3261448.5624815zm12.9228951-13.51846381c-.0614475.00472674-.1796159-.18434269-.3639586-.56720827l-.0094535-.11816839c.1181684-.00945347.2410635.17488922.3639587.55302807zm-.1701624-1.35184638-.0567209.12289513-1.7488921-.73264402c1.1675036.03781388 1.7725258.24106352 1.805613.60974889zm-7.4162482 6.36691285-.2457903.02363368-.0094534-.11816839.2457902-.02363368zm-.2032496-3.8239291.0661743-.00472673.0141802.17961595c-.0614476.00472674-.1370754.08980798-.2268833.25524372l-.0094535-.11816839c.1087149-.13707533.160709-.24106351.1559823-.31196455zm-.5036107 1.22895126.0222222.23161004-.0777778.00472674-.0222222-.23161005zm-.2904809.43958641.1228951-.00945347c-.0141802.19852289-.0661743.30251108-.1559823.31196455l-.0661743.00472673c.0709011-.13234859.1039882-.23633678.0992615-.30723781zm-.1985229.60502216.0567208-.00472674.0047268.06144756-.108715.18906943-.1228951.00945347-.0047267-.06144756c.1276218-.00945348.1843427-.07562777.1748892-.19379616zm-.1985229.54830133-.0425406.30251107-.0567208.00472674-.0236337-.29778434zm-2.0183161 5.73353028c-.0803545.3970458-.1654357.6002954-.2552437.6097489l-.0047268-.0519941c-.0141802-.1985229.0709011-.3875923.2599705-.5577548zm-.3734121.7988183.0047267.0519941c.0094535.0850812-.0283604.1323486-.1134416.1370753l-.0047268-.0614475c-.0047267-.0614476.0330872-.1039882.1134417-.1276219zm-.1039882 1.6638109.1890694-.0141802.0047268.0614476c-.0425407.0047267-.108715.0283604-.1843427.070901l-.1228952.0094535c-.0047267-.0661743.0330872-.1087149.1134417-.1276219zm5.3081241-1.6401772c-1.0398819.5152142-1.6590842.8649926-1.8528804 1.0446086-1.1344165.3970457-1.6968981.642836-1.6874446.7420974-1.0067947.4017726-1.6685376.6901034-1.9805022.8744461-.0756278.0047268-.1843427-.0236336-.3261448-.0898079-.0189069-.2032497.0756278-.3686854.2741507-.4915805.179616-.0141803.3497784.0094534.5057607.0756277.1890694-.0945347.5152142-.1985229.9784343-.3166913l-.0094535-.1181684-.3828656.0330872c.0472674-.0661743.411226-.2363368 1.0871492-.5104874l.1890694-.0141803.0047268.0519941c-.321418.0283605-.501034.1228952-.5388479.2930576.0047268.0756278.0519941.1134417.1323486.1039882.2363368-.1559822.3497785-.2457902.3497785-.2741506.4537666-.0803545 1.7110782-.7420975 3.7766617-1.9805023l.0094535.1181684c0 .0472674-.1748892.1985229-.5293944.4584934zm-3.1669129 1.0398818c.3072378-.0283604.5672083-.1465288.7846381-.3545051.0803545-.0047268.1276219.0283604.1323486.1039881-.141802.0141802-.4206794.1323486-.8413589.3592319l-.0661743.0047268zm5.1143279-3.9279173-1.5740029 1.2667652c-1.1769572.7704579-1.8150665 1.1580502-1.9143279 1.1675037-1.8717873 1.0304283-3.0345643 1.5645495-3.4930576 1.6023633l-.0661743.0047268c.0567208-.2127031.893353-1.9190547 2.5098966-5.1237814.7042836-.0614476 1.8197932-.3970458 3.3512555-1.00206796l.3828656-.03308715c.7704579-.0661743 1.3471196.08508121 1.7252585.44903991l.0189069.23161c-.2883308.8129985-.6002954 1.2903988-.9406204 1.4369276zm-3.091285-1.7352946.2457902-.0277777.0047268.0722222-.2457903.0277778zm3.5781388-.61389295.1890694-.01418021c.1748893.08508124.2646972.16070901.269424.22215657l.0047267.0519941c-.1654357.0141802-.321418-.07090104-.4632201-.25997046zm.4963073-2.87858198c-.1654358.19852289-.6144757.53884786-1.3471197 1.01152142-.2457902.02363367-1.1533235.37341211-2.7225997 1.05406203-.0756278-.02836041-.160709-.03781388-.250517-.03308714l-.0094535-.11816839c-.0189069-.22688331.0803545-.51048745.2977844-.85553915.1228951-.65228951.2599704-1.01624815.4017725-1.10132939l1.3187592-2.94948302c-.0141802-.17488921.2646972-.31669128.8319055-.4254062l.1890694-.01418021.0141802.17961596c.5577548-.08980798.9075333-.14180207 1.0493353-.15598228 1.0398819-.08980797 1.5834565.11816839 1.6259971.62865584l.1228951-.00945347-.0236337-.28360414.1228952-.00945347c.302511.16543574.4632201.36395864.482127.60029542.0141802.17016248-.070901.37813885-.250517.61920236-.0803545.00945347-.1276219-.04726735-.1370753-.17016248l-.1228952.00945347-.0378138.35450517c-.5246677.79881832-.9075333 1.21004432-1.1485968 1.22895126-.2127031.28833087-.3450517.43485967-.4064992.43958641zm.553028 1.96632201-.0141802-.17961596.1228951-.00945347.2646972.16070901c.0047268.07562777-.0330871.11816839-.1134416.12762186-.1134417-.07090103-.1985229-.10398818-.2599705-.09926144zm-22.0029542 11.48124072-.1228951.0283605-.1039882.0898079c.0189069.0756278.0661743.1039882.1465288.0850813.0803545-.018907.1134417-.0661743.0945347-.1418021zm-.4679468-.9311669.0141802.0614476c.0803545-.0189069.1134416-.0661743.0945347-.1418021l-.0141802-.0614475c-.0756278.0189069-.1087149.0661743-.0945347.141802zm3.3466197-6.2527326.0990228-.0857143c-.0208469 0-.0364821-.0071429-.0521172-.0142857-.0364821.0142857-.0521173.05-.0469056.1zm-.0189979-1.6645495.1418021-.0330871-.0283604-.1228952-.1418021.0330872zm33.4038405 4.774003-.321418-.0378139-.0567208.1228951.0047267.0614476 1.9143279-.160709-.0094535-.1181684zm1.7594387-.1465288.02.1181683h.04l-.02-.1181683zm8.0201773-1.0493353.0094534.1181683.2079764.0378139-.0094535-.1181684zm-.2930576.0236336c-1.4369277.3214181-1.6165436.2646972-1.9190547.2883309l.0094535.1181684.1323486-.0094535.070901-.0047267-.0189069-.0141802.1559822-.0614476c1.4227475-.1559823 1.5881832-.0992614 1.574003-.2599704zm-8.6262925-2.0892171-.1276219-.0425406c-.1039881.2788774-.1559822.4443131-.1512555.4915805l.0047267.0519941c.0992615-.0047268.1890695-.1748892.2741507-.501034zm-1.7299852-.9311669-.0047268-.0614476-.0661743.0047268-.1181684.0756277.0661743.1134417c.089808-.0094535.1323486-.0519941.1228952-.1323486zm3.8104874 3.8853766-.02-.1181683-.08.0047267.02.1181684zm7.7463811-1.7583456.089808-.0094535c.0519941-.0047267.0756277-.0472673.070901-.1228951l-.0519941-.1134416c-.3261447.0283604-.4774003.0425406-.7420975.1890694l-.0047267-.0614476-.3923191.0378139c-.0094534-.1181684-.0425406-.179616-.0945347-.1748892l-.2032496.0189069c-.2363368.018907-.3497784.0094535-.4679468.0992615-.0047268-.0425406-.018907-.0614476-.0425406-.0614476l-.2268834.018907-.1323485.0756277c-.0047268-.0425406-.018907-.0614475-.0425407-.0614475l-.0803545.070901-.0047267-.0614476-.3166913-.0236336-.0756278.0047267.0094535.1181684.160709.0425406.1512556-.0094535c.051994.0330872.1087149.0425406.1748892.0378139l.1323486-.0661743.0047267.0519941c-.7420975.1843427-.7373707.1512555-1.2478582.2363368-.0567208-.0378139-.0992614-.0567208-.1276219-.0519941l-.0094534.0094535c-.0567209-.0047268-.089808-.0425407-.0945347-.1039882l.2646972-.0330872c.0189069 0 .0330871.018907.1796159.0472674.2127031-.1039882.2221566-.1465288.3355982-.1559823l-.0094534-.1181684c-.7279173.1418021-.4348597.0472674-1.3471197.1276219l-.0425406.0047267-.0094535-.1181684c1.1722305-.141802.7799114-.0614475 1.1816839-.1748892.0047268.0425406.018907.0614476.0425406.0614476.0472674-.0472674.0992615-.0709011.1607091-.0803545l.0803545-.0047268c.411226-.0330871.5483013.0472674 1.3612998-.1796159l.0047268.0519941.1323485-.0661743.1228952-.0094535c-.0094535-.1181684.1701625-.1370753.23161-.1418021l-.0094535-.1276218c-1.4274741.2883308-1.8008862.2079763-2.197932.321418l-.0047267-.0519941c-.3734122.0661743-.3875924.0378139-.4821271.0425406-.0283604.0047268-.070901.0283604-.1181684.0756278-.0047267-.0425406-.0189069-.0614476-.0472673-.0614476-.0141802 0-.018907.0047268-.0236337.0047268l-1.2100443.1985229c-.0047267-.0330872-.018907-.0519941-.0472674-.0472674-.6286558.1323486-.4584933.1559823-1.2998523.23161-.0378138.0047268-.0898079.0236337-.1559822.0661743-.0047268-.0330871-.0236337-.051994-.0661743-.0472673l-.5152142.0425406-.3450517.0850813c-.0047267-.0330872-.0236337-.0519941-.0661743-.0472674-.1937962.0519941-.3639586.0850812-.501034.0945347h-.0094535c-.0850812.0094535.0425407-.0236337-.0236336-.0519941l-.1039882.0614476c-.1512556.0141802-.070901-.0094535-.590842-.0047268-.9122599.1134417-.8129985.1276219-.9122599.1323486l-.340325-.0236336c.0047267.0330871-.0141802.0567208-.0519941.0567208-.3875923-.0519941-.5861152-.1134417-.5908419-.1843427.0519941-.3686854.141802-.5577548.2694239-.5672083l.0661743-.0047267-.0567208.1228951.0661743-.0047267c.1228951-.0661743.1796159-.1276219.1748892-.1843427l-.0094535-.1276219-.1228951.0094535-.0094535-.1181684c-.0094535-.089808.0047267-.1701625.0378139-.2363368l.2788774-.4490398.0094535.1181683.1323486-.0094534-.0094535-.1181684-.0756278-.1087149c.0992615-.0850813.1748892-.1323486.2363368-.1370754l-.0047267-.0614475-.179616.0141802-.0141802-.179616c.3592319-.7468242.5293944-1.1816839.5199409-1.304579l.1276219.0519941c.0803545-.0047267.1181684-.0519941.1134416-.1370753l-.1228951.0094534-.0047267-.0519941c-.0094535-.0898079.0094534-.1748892.0472673-.2505169.1937962-.2032497.2836042-.4064993.2646972-.61920241.0378139-.00472674.0567209.0141802.0614476.05672082.1654357-.09453471.2930576-.34505169.3875923-.76100443.2930576-.52939438.7090103-1.58818316 1.2525849-3.17163958 1.0398819-2.79822748.9973413-3.09601182 1.1438701-3.7577548l-.1228952.00945347c.0094535.08508124-.0094534.16543574-.0472673.24106351-.0850813-.03308715-.1512556-.05199409-.1985229-.04726735l-.0047268-.0519941c-.0189069-.24106351.0803546-.52939438.3072379-.86971935l.0567208-.00472673.1039882.40649926.1228951-.00945347c-.0047267-.02836041.0283604-.18906942.0945347-.48685377-.0047267-.06144756-.0519941-.09926144-.1465288-.10398818l-.1181684.07562777c-.0094535-.08508124-.0047267-.30723781.0094535-.66174298l-.0614476.00472673c-.1039882-.10398818-.1559823-.18906942-.160709-.25997046l-.6759232.0661743c-.0047267-.04726735-.0283604-.11816839-.0756277-.20797636-.0047268-.06144757.1465288-.12289513.4584933-.18434269l.1370753.05199409.1276219-.07562777c.0047267.04254062.0283604.06144756.0756278.05672083l.1276218-.07562777c.0047268.04254062.0283604.06144756.0756278.05672082l.0614476-.00472673-.0094535-.13707533c-.0945347.00945347-.3450517.00945347-.7420975-.00472674l-.1276219.08508124-.0047267-.07562777c-3.1716396.25997046-4.9725258.40649926-5.4026588.44903988-.0567208.00472674-.2788774 0-.6711964-.00945347.0047267.05199409-.0425407.08035451-.1370754.08980798l-.1370753-.06144756-.4632201.11816839c-.1087149.00945347-.2930576.00472673-.5483013-.02363368-.0709011.05672083-.1559823.08980797-.2599705.09926145-.0567208.00472673.6759232-.03781389 1.3565731-.08508125-.070901.05672083-.1796159.08980798-.3308715.10398819-.1039881.00945347-.1937961-.00472674-.2694239-.04726736-.1039882.04726736-.4395864.12289513-1.0020679.23633678l-.1370754-.05199409-2.2121122.34032496c-.0850813-.04254062-.1843427-.05672082-.2977844-.04726735-.1181684.00945347-.3166913.05199409-.5908419.12762186l-1.0682423.44431314.0803545.1323486c.0519941-.00472673.1276219-.03308715.2174299-.08508124l.3781388.03308715-.0472673.35450517c-.3497785.15598227-.5530281.38759232-.6097489.68064993-.5246677.23161004-.7846381.39704579-.7846381.49630723l.0047267.06144757.0803545-.00472674.1418021-.07562777.1654357.1985229.0236337.27415066c.0094535.08508124-.8744461 1.94268833-2.6422452 5.57282127-1.5314623 3.49778433-2.3350074 5.41211223-2.4106351 5.75716393-.5246677.1465288-.8271788.3592319-.9169868.6428361.0094535.0898079.1654358.1512555.4679469.1748892l.0141802.1370753-.1370754.2268833.0236337.2741507c.0141802.1418021.3970458.250517 1.1485968.3261448-.0047268-.0472674.0189069-.0756278.070901-.0803546.0141802.1701625-.0330871.501034-.1418021.9926145l.0803545-.0047267c.3119646-.4254062.4584934-.7184638.4443132-.8791728l.0661743-.0047268c.0756278-.0047267.1559823.0803545.250517.2646972-.0945347.0378139-.4254062.7893649-.9926145 2.2593796l.0803545.1323486.0803545-.0047267c.6948301-1.7583456 1.1296898-2.7320532 1.3093058-2.9163959.9122599-.0803545 2.4909896-.2410635 4.7314623-.482127l.1418021-.0850812c.0047267.0472673.0330871.070901.0850812.0661743l.1465288-.0141802.1418021-.0850813c.0047267.0472674.0330871.070901.0850812.0661743l1.6968981-.1465288c.4490399-.0378139.661743-.1748892.642836-.4064993-.0047267-.0614475.2599705-.1323485.7940916-.2079763.0519941-.0047268.1276219.0094535.2316101.0425406-.0047268-.0425406.2646972-.0850812.803545-.1323486.0141802-.2836041.1039882-.4348597.2646972-.4490399l-.0141802-.1370753c-.1512555.0141802-.321418.0519941-.5199409.1181684-.3545052-.018907-.5813885-.0472674-.6759232-.0803545-.0945347.0519941-.1654357.0803545-.2174298.0850812l-1.1816839.0378139-.1418021.0756278c-.0047267-.0425407-.0330872-.0614476-.0850812-.0567209l-.0661743.0047268-.1512556.0756277c-.0047267-.0425406-.1276218-.0756277-.3734121-.1087149l-.1512555.089808-.2930576.0236337-.0047268-.0756278c1.5220089-.1654357 2.2735598-.3734121 2.2546529-.6192023.0992615-.0094535.1512555.0378138.160709.1370753l.4443132-.1134417-.0141802-.1370753-3.6443132.0992614c.0047267.0472674-.0189069.0756278-.070901.0803545l-.4443132-.0378138c-.1134416.0094534-.2079763.0425406-.2836041.0992614l-.1654358-.0614476c-.4584933.0378139-.7988183.0945348-1.0257016.1654358-.3119645-.0236337-.6570162-.0189069-1.0398818.0141802l-.8177253.070901-.3781388-.0425406c-.018907-.2410635.4490399-1.4274741 1.4132939-3.5545052.2788774-.7184638.5341212-1.16750365.7799114-1.33766613.0519941-.00472673.1276219.01418021.23161.05672083l.5813885-.1985229.2977844.04726736c.5010339-.04254062 1.0824224-.18434269 1.7488921-.43013294.1654358-.01418021.2883309-.00472674.3781389.03308715l.4443131-.10398818 1.323486-.11344166c.5624815-.04726735 1.1722304-.17016248 1.8339734-.37341211l-.0141802-.13707533c-.2457902.02363367-.3734121-.01890695-.3828656-.11816839-.0141802-.18434269-.1937961-.25997046-.5388478-.23161005l-.0141802-.13707533.3639586-.10398818.9548006-.08035451-.0141802-.13707533c-.0378139.00472674-.2316101 0-.590842-.01418021l-.0141802-.1465288.3686854-.03308715c.0992614-.00945347.1418021-.05672083.1323486-.15125554-.4963072.01418021-.7468242-.00945347-.751551-.07562777-3.4599704.17016248-5.1946824.20324963-5.2041359.09453471-.051994.00472674-.1228951.03781389-.2174298.09453472l-.089808-.14180207c.9169867-1.94741507 1.4558346-2.93057607 1.6118169-2.94475628.0047267.07562777-.0330872.19852289-.1134417.36395864l.0047268.06144756.1465288-.0141802c.3639586-.86971935.6711964-1.31875924.9264401-1.33766618 1.0871492-.09453471-.1512555-.16543574 2.1742984-.52939438.0945347.04254062.160709.06144756.2079764.05672082.9122599-.18434269 2.1837518-.37813885 3.8144756-.57666174l-.0094535-.13707533-.8697193.0803545-.0094535-.13707533c.1039882-.00945347.1890694-.04254062.2599705-.09926145l.0047267.07562777c.0472674-.00472673.1134417-.03781388.1985229-.09453471.1512555-.01418021.2646972 0 .3450517.04254062.3025111-.0803545.5483013-.12762186.7279173-.1465288l.5435746-.05199409c.1323486-.08508125.1937961-.16070902.1890694-.23161005l-.0047267-.06144756c-.1370754.01418021-.2930576.00472673-.4774003-.02836042-.0047268-.07562776.0330871-.12762186.1228951-.15125553l1.0115214-.09453472.4632201-.11816839c.0047267.0519941.0283604.07090104.0661743.07090104.0472674-.00472674.1134417-.03781389.1985229-.09453471.0236337.00472673.0519941.00472673.0756278.00945347-.0614476.12762186-.1323486.31196455-.2032497.55302806l-.1323486.00945347c-.0094534-.08980797-.0330871-.17016248-.0756277-.24106351l-.0661743.00472673c-1.2289513 3.42215658-1.7772526 5.01506647-2.9116692 7.64313147-.2079763.67119645-.3828655 1.04460854-.5341211 1.12496304.0047267.0756278.0519941.1134417.1323486.1039882.0283604.3308715-.0472673.6570163-.23161.9784343-.5246677 1.5125554-.8744461 2.3397341-1.0540621 2.4909896l.1181684.7137371c.0047268.0756278-.0330871.1181684-.1134416.1276219l-.1228952.0094534c-.0189069-.1985228-.0898079-.2930576-.2174298-.2788774l-.0661743.0047268c-.160709.250517-.2836041.5388478-.3639586.8744461l.1228951-.0094535c.1654357-.1087149.2410635-.2363368.2268833-.3828656l.2457902-.0236337.1418021.0519941c-.1134416.179616-.1654357.321418-.1559823.430133l.0661743.1134416-.160709.3781389.0047268.0614475c.141802-.0141802.2977843.0330872.4632201.1323486.1134416-.0094534.2363367-.0614475.3734121-.1512555.141802-.0141802.6711964-.018907 1.5834564-.018907l.4584933-.1559822c.5577548-.0047268.6475628.0094534 1.1296899-.0330872l.1985228-.0189069.1039882-.0709011.0047268.0614476c.5057607-.0425406.5388478-.0094535.9358936.0378139l.0047267.0614476-.2788774.0236336.0094535.1181684c.0850813-.0094534.160709-.0330871.2221566-.0850812.070901-.0047268.1134416.0330871.1181684.1181684-.1134417.0094534-.2410635.0378139-.3828656.0850812l-.1228951-.0425406c-.1937962.0519941-.1512556.0661743-.2836042.0756278l-.1937961-.0378139c.0047267.0330871-.0141802.0567208-.0472674.0567208.0047268.0756278.0472674.1134417.1181684.1087149l.1985229-.0189069 1.0351551-.089808.3923191-.0850812c.0047267.0330871.0189069.0519941.051994.0472673l.1890695-.070901.3545051-.0283604c.2741507-.0236337.269424-.0425406.8649927-.1370754-.0047268-.0378138.0094534-.051994.0378138-.0567208l.0047268.0519941c.9689808-.1654357 1.0304283-.1748892 1.1864106-.2268833l.0141802.0283604c.2410635-.0567208.1039882-.0425406.1701625-.089808.0047267.0425407.0189069.0614476.0425406.0614476l.1701625-.0141802-.0094535-.1276219-.3450517-.0047267-.0047267-.0094535c-.0141802.0047268-.0236337.0047268-.0378139.0094535h-.0472673v.0094535c-.2316101.0472673-.2363368.0141802-.3875924.0283604l-.8649926.0472673-.0047267-.0614475.482127-.0661743.1748892-.0141802.0992615-.0709011.0047267.0614476c.6806499-.0567208.9217135.1134417 4.0697194-.5577548.1701625-.0141802.1559822-.1559823.2646972-.4490399-.0567209.0047267-.1134417-.0094535-.1654358-.0378139-.2599704.0992615-.3970458.0519941-.8980797.1323486-.0425407.0047268-.0756278-.0330871-.089808-.1087149l-.0047268-.0519941.4821271.0141802c.0898079-.0094534.2646972-.0236337.5246676-.1701625 0 .0425407-.0992614.0661743-.0425406.0614476zm-23.2744461.3734121-.2221566.018907c-.0094534-.089808.108715-.430133.3545052-1.0115215l.1465288-.0141802c.0047268.1370754-.0850812.4726736-.2788774 1.0067947zm.2694239-1.0776957-.0047267-.0614476c-.0047267-.0756277.0425406-.1276218.1465288-.1512555l.0047268.0614476c.0047267.0898079-.0425407.141802-.1465289.1512555zm2.9542098 2.2830133.0047267.065-.3686853.035-.0047268-.065zm-.4443132-.0378139c.0047268.0756278-.1087149.160709-.3545051.2457903l-.4537666-.0330872-.1465288.0141802-.0141802-.1370753zm2.9872969-13.75007385-.2221565.01890695-.0047268-.07562777c-.0047267-.07562777.0378139-.12762187.1323486-.15125554l.0803545-.00472674.1512556.06144756c.0047267.08980798-.0378139.14180207-.1370754.15125554zm3.379616-.66174298.070901-.00472674.0094535.13707534-.2032496.01890694c-.0047268-.07562777.0330871-.12762186.1228951-.15125554zm-.8508124.29778434-.3355982-.03781388-.0047268-.06144757c.4395864-.03781388.5861152-.08508124.8555392-.16070901.0047267.0519941.0519941.07090104.1370753.06144757l.0094535.13707533-.1323486.01418021c-.1039882.00945347-.1937962-.00472674-.2694239-.04726736-.0803546.05199409-.1654358.08508124-.2599705.09453471zm.4206795 1.22422452-.0047268-.06144756.5435746-.05199409.0047268.06144756zm.5813884-.47193501-.0047267-.07619047.2646972-.02380953.0047267.07619048zm.0614476-.92717873-.070901.00472674.0614475-.1465288.6050222-.05672083.0047267.07562777c-.1559823.01418021-.3592319.05672083-.6002954.12289512zm.3072378 1.30457903-.0094535-.13707533.2646972-.02363368c.089808-.00945347.1370754.03308715.1418021.12762186zm1.6023634-2.18375185-.340325.09453472-.0614475.00472673c-.1607091.01418021-.3686854.00945347-.6144757-.01418021.4395864-.02836041.8602659-.06144756 1.0162482-.08508124zm-.3639587 1.51255539.0047268.06144757-.4679468.04254062-.0047268-.06144756zm.7657312.36395865c-.0047267-.05672083-.0945347-.09453472-.2788774-.11344166l-.4679468.1323486-.3592319.01418021c-.0803545-.05672083-.1228951-.09453472-.1276219-.12289513l.4159528.02363368.9358936-.15125554.4774003.01890694.0047267.07562777c-.2363367.02363368-.4348596.0661743-.6002954.12289513zm4.8165436-1.24313147c.0567208.00472674.0945347.00472674.1087149.00472674.1654357-.16070901.3497784-.28833087.5624815-.37813885-.1701624.74682423-.4348596 1.29985229-.7988183 1.6590842l-.2646972-.16070901c.2221566-.56248154.3545052-.93589365.3923191-1.12496308zm-.8129985 1.39438701.0661743-.00472674c-.089808.17016248-.1701625.25997046-.2363368.26469719l-.0141802-.17961595c.0425406 0 .1039882-.02836041.1843427-.0803545zm-.5246677 1.25258493c.1276219-.51048745.250517-.79881832.3639587-.87444609l.0047267.06144757c-.0661743.47267356-.1701625.72319054-.3072378.74209748l.0236337.29778435c-.1134417.16070901-.1654358.28360413-.1607091.37813885l-.0661743.00472673-.0378138-.411226c.0756277-.00945347.1370753-.07562777.1796159-.19852289zm-.2032496.68064992c.0047267.07090104-.0425406.23633678-.1370754.49158051l-.0661743.00472673-.0141802-.17961595c.089808-.20797637.1654358-.31196455.2174299-.31669129zm-3.8144756 11.0700148-.0047268-.0519941.1228951-.0094535.0141802.179616c-.0661742.0047267-.1134416-.0330872-.1323485-.1181684zm5.4499261.141802c-.0047267-.0425406-.0236337-.0614475-.0661743-.0567208l-.3072378.0283604-.0047268-.0614475h.0283605l.7279172-.0614476.0047268.0614476c-.2127031.0094534-.340325.0425406-.3828656.0898079zm-.33647-.1459822c.06.03.03.06 0 .08-.03-.01-.07-.04 0-.08zm.0103252-.8560857-.4064992.0330871-.0047268-.0614475.3686854-.0330872.321418-.0803545c.0047268.0378139.0236337.0519941.0661743.0472674.3828656-.0661743.3450517-.0850813.5293944-.0992615.0614476-.0047267.0992615.0330872.1039882.108715zm1.4227475-.1228951c-.2268834-.0236337-.2410636-.0425406-.4017726-.0283604l-.0047267-.0519941.3639586-.0330872.0047268.0519941c-.0378139.0047267.0992614.0141802.0378139.0614476zm.0283604-.0370754-.0047268-.0733333.1985229-.0266667.0047268.0733334zm.4395864-.0669128-.0047268-.0519941c.0330872-.0047267.0803545-.0283604.1418021-.0756278.0992615-.0094534.1512556.0567209.160709.1323486zm.5624815-.0512556-.0047267-.0764705.2410635-.0235295.0047267.0764706zm.3355982-.0480059c-.0047267-.070901.0236337-.1134416.0850813-.1228951l.0803545.1039882c-.0047267-.0330872.0094535-.0519941.0378139-.0567208l.0614475.1134416zm4.6748376-.5166617.01-.01v-.01s-.01.01-.01.02zm.0613515-.0930872c.0378139-.0236336.0567208-.0472673-.0330871-.0614475-.0425407.0472673.0472673.0614475-.0472674.0661743l.0047267.0425406c.0094535-.0094535.0330872-.0236337.0519941-.0378139l-.0519941.0425406v.0047268l-.0992614.1276218.1985229-.070901h.0236337l-.0094535-.1181684zm.3450517.269424-.0378139.0047267.0094535.1181684.2788774-.0236337c-.0047267-.0756277-.1890694-.0992614-.250517-.0992614z" fill="#f9dc3e"/></g></svg>