<svg height="39" viewBox="0 0 64 39" width="64" xmlns="http://www.w3.org/2000/svg"><path d="m15.1011139 10.091966h12.0710972v.9616143h-10.9643091v7.2365913h10.3103768v.9616143h-10.3103768v7.9451264h11.089982v.9616143h-12.1967701zm13.1523174 0h1.2827301l5.6834479 7.9451265 5.8091208-7.9451265 7.9013576-10.091966-12.9811423 18.8721671 6.6892643 9.2863595h-1.3329993l-6.0856011-8.4512848-6.1107357 8.4512848h-1.3078647l6.7395335-9.2863595-6.2866778-8.7802011zm14.8627687.9616143v-.9616143h13.7555473v.9616143h-6.3369469v17.1045129h-1.1067881v-17.1045129h-6.3113789zm-43.1162-.9616143h1.38326844l19.07237706 28.6027152-7.8818567-10.5361546-11.4171649-16.700193-.05026916 16.700193h-1.10635474zm56.7608085 16.8145986c-.2266446 0-.3960863-.1755086-.3960863-.4021532 0-.2270779.1694417-.4025866.3956529-.4025866.2288113 0 .3956529.1755087.3956529.4025866 0 .2266446-.1668416.4021532-.3956529.4021532zm1.0868538-1.0586857h.5923959c.0082338.3215493.2426787.53736.5867624.53736.384819 0 .6027965-.2318449.6027965-.666933v-2.754403h.6027965v2.7570031c0 .7835054-.451989 1.2346277-1.2003927 1.2346277-.7020348 0-1.1839253-.4376883-1.1839253-1.1076548zm3.1730236-.0346684h.5975963c.0511358.3696517.411687.60453.9312794.60453.4840573 0 .8394082-.2513458.8394082-.5967296 0-.296848-.2257779-.4753902-.74017-.5967295l-.5005248-.1213393c-.7020347-.1646748-1.0227172-.5052917-1.0227172-1.0777534 0-.6942343.5650946-1.1561905 1.4127365-1.1561905.7887057 0 1.3650676.4619562 1.399736 1.1180553h-.5867624c-.0563361-.3588177-.3683516-.5832955-.8207739-.5832955-.4766903 0-.793906.229678-.793906.5806954 0 .2782138.2045435.4376883.7107018.5564275l.4277212.1053052c.7965061.1863426 1.124989.510492 1.124989 1.0963876 0 .7453702-.5763619 1.21296-1.496374 1.21296-.861076 0-1.440038-.445922-1.4829401-1.1427565z" fill="#fff"/></svg>