<svg height="64" viewBox="0 0 66 64" width="66" xmlns="http://www.w3.org/2000/svg"><path d="m32.8089701 0c-18.1160197 0-32.8089701 14.6902164-32.8089701 32.8089701 0 14.4960966 9.39976993 26.7939922 22.4386015 31.1329785 1.6377144.303483 2.1681261-.7135951 2.1681261-1.5775646v-6.1079366c-9.1263619 1.9849427-11.0265481-3.8714585-11.0265481-3.8714585-1.4928081-3.7921701-3.64452972-4.8010459-3.64452972-4.8010459-2.97741404-2.0368903.22692872-1.993145.22692872-1.993145 3.2945674.2296628 5.0279747 3.382058 5.0279747 3.382058 2.9254665 5.0143043 7.6745649 3.5652414 9.5474103 2.7258786.2925466-2.1189126 1.1428457-3.5679755 2.0833696-4.3854656-7.2863255-.8338947-14.94722-3.6472639-14.94722-16.2158335 0-3.58438 1.2822839-6.5098465 3.3793239-8.8064744-.339026-.8284265-1.4627332-4.1667392.3198875-8.6834408 0 0 2.7559535-.880374 9.0252008 3.3629195 2.6165154-.7272655 5.4216823-1.0908983 8.2104448-1.1045687 2.7887625.0136704 5.5966635.3773032 8.218647 1.1045687 6.2637792-4.2432935 9.0142645-3.3629195 9.0142645-3.3629195 1.7853548 4.5194357.6616476 7.8577484.3226216 8.6834408 2.1052422 2.2966279 3.3765898 5.2248285 3.3765898 8.8064744 0 12.6013786-7.6745649 15.3764706-14.9800289 16.1884926 1.1756547 1.0170781 2.2501485 3.0129571 2.2501485 6.0751277v9.0033282c0 .8721718.5249435 1.8974521 2.1899988 1.5748305 13.0278952-4.3444544 22.4167288-16.6396159 22.4167288-31.1302444 0-18.1187537-14.6902164-32.8089701-32.8089701-32.8089701z"/></svg>