<svg height="40" viewBox="0 0 64 40" width="64" xmlns="http://www.w3.org/2000/svg" xmlns:xlink="http://www.w3.org/1999/xlink"><linearGradient id="a" x1="66.415%" x2="33.549%" y1="15.904%" y2="83.99%"><stop offset=".3" stop-color="#3e863d"/><stop offset=".5" stop-color="#55934f"/><stop offset=".8" stop-color="#5aad45"/></linearGradient><linearGradient id="b" x1="21.98%" x2="78.535%" y1="71.295%" y2="29.364%"><stop offset=".57" stop-color="#3e863d"/><stop offset=".72" stop-color="#619857"/><stop offset="1" stop-color="#76ac64"/></linearGradient><linearGradient id="c" x1=".034%" x2="100.019%" y1="50.003%" y2="50.003%"><stop offset=".16" stop-color="#6bbf47"/><stop offset=".38" stop-color="#79b461"/><stop offset=".47" stop-color="#75ac64"/><stop offset=".7" stop-color="#659e5a"/><stop offset=".9" stop-color="#3e863d"/></linearGradient><mask id="d" fill="#fff"><path d="m6.46351244.09837918-6.0951692 3.51806859c-.22829758.1316545-.36834324.37470895-.36834324.63743925v7.04105608c0 .262875.14004566.5057848.36834324.6374393l6.09560323 3.5208174c.22786355.1312205.50882293.1312205.73639713 0l6.0945905-3.5208174c.2271402-.1316545.3674752-.374709.3674752-.6374393v-7.04105608c0-.2627303-.140335-.50578475-.3689219-.63743925l-6.0937225-3.51806859c-.11429346-.06553789-.2416077-.09837918-.36892194-.09837918s-.25462848.03284129-.36892194.09837918" fill="#fff" fill-rule="evenodd"/></mask><mask id="e" fill="#fff"><path d="m0 11.7211565c.05830413.0756652.13122047.1412031.21701291.1903927l5.22856432 3.0200963.87094514.5005764c.13020774.0752311.27864457.1070597.42447725.0962091.04861089-.0039063.09722178-.0130208.14467527-.0264756l6.42850101-11.77078014c-.0491896-.05352985-.1067703-.09837918-.1712955-.13599475l-3.99101205-2.30467709-2.10965482-1.21382553c-.05989556-.03472206-.12485476-.05931686-.19097136-.07667789z" fill="#fff" fill-rule="evenodd"/></mask><mask id="f" fill="#fff"><path d="m6.37222235.00274883c-.10228542.01012727-.20225603.04195583-.29441418.09432828l-6.07780817 3.50794131 6.55378981 11.93715668c.09114543-.0130208.18084409-.0434026.26186225-.0902774l6.09516924-3.5208174c.1880778-.1090851.3168388-.2936908.3559011-.5028912l-6.68110403-11.41343222c-.04918959-.00969325-.09837918-.01475688-.14901553-.01475688-.02025453 0-.04050907.00101273-.06076361.00289351" fill="#fff" fill-rule="evenodd"/></mask><g fill="none" fill-rule="evenodd"><path d="m31.6328142 39.1968401c-.2112259 0-.4210051-.0554106-.6061894-.1620363l-1.9295341-1.142356c-.2881932-.1611682-.1475688-.2181703-.0525172-.2510116.3842576-.134548.4622375-.1649298.8723919-.397857.0431133-.0245948.0995366-.0159142.1436626.0101273l1.4823428.8796257c.0535299.028935.1294844.028935.179108 0l5.7797771-3.3362118c.0535299-.0303818.0882519-.0925922.0882519-.1562493v-6.66953c0-.0665507-.034722-.1258675-.0894093-.1591428l-5.7774623-3.3333183c-.0535298-.0318285-.1244207-.0318285-.1779506 0l-5.7763049 3.3333183c-.0559893.0318285-.0915794.0940389-.0915794.157696v6.6695301c0 .0636571.034722.1244207.0896986.1548025l1.5827475.9143477c.8593711.4296856 1.3845424-.0766779 1.3845424-.5859348v-6.5827249c0-.0940389.0737844-.1663766.1678233-.1663766h.7320569c.0911454 0 .1663765.0723377.1663765.1663766v6.5856184c0 1.1458281-.6249972 1.8041006-1.7115084 1.8041006-.3341999 0-.5975089 0-1.3324593-.3616882l-1.5161969-.8738386c-.3747089-.2170129-.6061893-.6221037-.6061893-1.0546827v-6.6695301c0-.4340258.2314804-.8391166.6061893-1.053236l5.7855642-3.3376585c.3660284-.2068856.8521373-.2068856 1.2152723 0l5.7783303 3.3391053c.3732622.2155661.6061894.6192102.6061894 1.053236v6.66953c0 .4325791-.2329272.8362231-.6061894 1.053236l-5.7783303 3.3376585c-.1851844.1070597-.3949635.1620363-.6090829.1620363" fill="#689f63" fill-rule="nonzero"/><path d="m33.418107 34.6010854c-2.5289237 0-3.0591586-1.1608744-3.0591586-2.134539 0-.0925921.0746524-.1663765.1673893-.1663765h.7465244c.0824649 0 .151909.0600402.1649298.1414924.1128467.7607026.4484933 1.1443814 1.977711 1.1443814 1.2181657 0 1.7361032-.2751724 1.7361032-.9211475 0-.3718154-.1475688-.6481452-2.0399213-.8333295-1.5827475-.1562493-2.5607523-.5049167-2.5607523-1.7708254 0-1.1660826.9837918-1.8605239 2.6316432-1.8605239 1.8503967 0 2.7676379.6423582 2.8833781 2.0225603.0043403.0477428-.0130207.0940389-.0448493.1287609-.0318286.0332754-.0766779.0535299-.122974.0535299h-.7508646c-.0781247 0-.1461221-.0549766-.1620363-.1302077-.1808441-.8000543-.6177635-1.0561295-1.8055474-1.0561295-1.3295658 0-1.4843683.4629608-1.4843683.8101815 0 .421005.1822908.543979 1.9762642.7812465 1.7766123.2358207 2.6200692.5685738 2.6200692 1.8171214 0 1.2586748-1.0503425 1.9806044-2.8819315 1.9806044m7.0398988-7.073174h.1938648c.1591428 0 .1895246-.1114.1895246-.1765038 0-.1707168-.1171869-.1707168-.1822908-.1707168h-.1996519zm-.2358207-.5468725h.4296855c.1475688 0 .4369194 0 .4369194.3298596 0 .2300337-.1475688.2777765-.2358207.3067116.1721635.011574.1837376.1244207.2068856.2835635.011574.0998259.0303818.2719895.0651039.3298596h-.2647558c-.0072337-.0578701-.0477428-.3761557-.0477428-.3935167-.017361-.0708909-.0419558-.105613-.1302078-.105613h-.2184596v.5005765h-.2416077zm-.5164907.6221036c0 .5179375.4181115.9374958.9317087.9374958.5179375 0 .936049-.4282388.936049-.9374958 0-.5193842-.4238985-.9317087-.9374957-.9317087-.5063635 0-.9317088.4065375-.9317088.930262m2.0486019.0043402c0 .6134232-.5020232 1.1139996-1.1139996 1.1139996-.6076362 0-1.1139996-.4947894-1.1139996-1.1139996 0-.6307841.5179374-1.1139995 1.1139996-1.1139995.6004023 0 1.1125528.4846621 1.1125528 1.1139995" fill="#689f63" fill-rule="nonzero"/><path d="m13.7348916 13.1003146c0-.2662025-.140335-.5107038-.3700793-.6430816l-6.12786585-3.5257364c-.10344282-.06076362-.21932771-.09259217-.33680404-.09693243h-.06336776c-.11747633.00434026-.23336122.03616881-.33854014.09693243l-6.12757646 3.5257364c-.22829758.1331012-.37065805.3776024-.37065805.6438049l.0134548 9.4964849c0 .1316545.06799738.2546285.1837376.3197323.11284671.0694442.25462847.0694442.36747519 0l3.64292334-2.0862174c.23003368-.1368628.3703687-.3787599.3703687-.6423582v-4.4364672c0-.2647558.14033501-.509257.36964532-.6409115l1.55091891-.8932251c.11516152-.0665506.2416077-.0995366.3703687-.0995366.12673553 0 .25607523.0326966.36805389.0993919l1.55019554.8929358c.22945498.1316545.37036869.3761557.37036869.6409115v4.4361778c0 .263309.14221579.5063635.37109207.6423582l3.64060855 2.0847707c.1142935.0679974.2565093.0679974.3703687 0 .112268-.0651039.1834482-.1880779.1834482-.3197324zm28.9159572 4.944422c0 .0661166-.0351561.1273143-.0925921.1600109l-2.1047359 1.2132468c-.0571467.0328413-.1277483.0328413-.1847503 0l-2.1050252-1.2132468c-.0578701-.0328413-.0925922-.0940389-.0925922-.1600109v-2.4299658c0-.0662613.0347221-.1273143.0911454-.1605896l2.1035785-1.2152723c.0578701-.0332753.128761-.0332753.1866311 0l2.1050252 1.2152723c.0578701.0332753.0925922.0943283.0925922.1605896zm.5685739-17.99789312c-.1148722-.06394647-.2546285-.06221037-.3680539.00390623-.1128467.06655063-.1825802.18807786-.1825802.31973235v9.40389267c0 .09259218-.0491896.17795059-.1293397.22424667-.0795714.0462961-.178674.0462961-.2589688 0l-1.5350046-.88411058c-.2285869-.1322332-.510125-.1322332-.73958 0l-6.1298913 3.53774438c-.2290209.1316545-.3703686.3761557-.3703686.6394647v7.0775143c0 .2647558.1413477.5078102.3703686.6409115l6.1298913 3.5402039c.2288763.1316545.5107037.1316545.7403034 0l6.1298913-3.5416507c.2285869-.1331012.3703686-.3761557.3703686-.6409114v-17.63880915c0-.26851731-.146122-.515478-.3804959-.64669847zm20.4126681 15.50398082c.2277189-.1322332.3679092-.376445.3679092-.639754v-1.7152701c0-.2638877-.140335-.5073761-.3684879-.640188l-6.090829-3.53586369c-.2300336-.13310125-.5121504-.13310125-.7421841 0l-6.1284445 3.53731039c-.2300337.1331013-.3703687.3761557-.3703687.6409115v7.0746208c0 .2662025.1432285.5121504.3732622.6438049l6.0893822 3.4707598c.2242466.128761.4991297.1302077.7262698.0043402l3.6834325-2.047155c.1157402-.0651039.1895246-.1880779.1895246-.3211792 0-.1331012-.0708909-.2575219-.1866311-.3226258l-6.1660601-3.5387572c-.1157402-.0651038-.1866311-.1880778-.1866311-.3197323v-2.2193187c0-.1325225.0694441-.2546285.1851843-.3206004l1.9183941-1.1067658c.1142935-.0665506.2546285-.0665506.368922 0l1.9198408 1.1067658c.1142935.0651039.1851844.1880779.1851844.3197324v1.7447837c0 .1316545.0708909.2546285.1851843.3211792.1142935.0651038.2560753.0651038.3703687-.0014468z" fill="#333"/><path d="m57.0798924 15.2198073c.0434026-.0256075.0978005-.0256075.1417818 0l1.1762099.678527c.0439813.0254629.0708909.0723377.0708909.122974v1.3585008c0 .0506363-.0269096.0975111-.0708909.122974l-1.1762099.678527c-.0439813.0256075-.0983792.0256075-.1417818 0l-1.1754866-.678527c-.0448493-.0254629-.0723376-.0723377-.0723376-.122974v-1.3585008c0-.0506363.0260415-.0975111.0708909-.122974z" fill="#689f63"/><g fill-rule="nonzero"><g fill="url(#a)" mask="url(#d)" transform="translate(17 8.685729)"><path d="m25.9815087 8.41865407-17.1751249-8.41865407-8.8063838 17.9649072 17.1746909 8.4190881z" transform="translate(-6.370418 -5.12863)"/></g><g fill="url(#b)" mask="url(#e)" transform="translate(17.269259 8.706563)"><path d="m0 11.8493388 12.1274047 16.4138436 16.0387006-11.8497728-12.128128-16.4134096z" transform="translate(-7.754834 -6.090142)"/></g><g fill="url(#c)" mask="url(#f)" transform="translate(17.504067 8.687032)"><path d="m0 0v15.5424645h13.2642629v-15.5424645z" transform="translate(-.329087 .270941)"/></g></g></g></svg>